<svg xmlns="http://www.w3.org/2000/svg" xmlns:cc="http://web.resource.org/cc/" xmlns:svg="http://www.w3.org/2000/svg" xmlns:xlink="http://www.w3.org/1999/xlink" id="svg2" width="22" height="22"><defs id="defs4"><linearGradient id="linearGradient2448"><stop id="stop2450" offset="0" style="stop-color:#c8a20b;stop-opacity:1"/><stop id="stop2452" offset="1" style="stop-color:#f7e87b;stop-opacity:1"/></linearGradient><linearGradient id="linearGradient2414"><stop style="stop-color:#f8e082;stop-opacity:1" id="stop2416" offset="0"/><stop style="stop-color:#cba40d;stop-opacity:1" id="stop2418" offset="1"/></linearGradient><linearGradient id="linearGradient2390"><stop id="stop2392" offset="0" style="stop-color:#ac8b0b;stop-opacity:1"/><stop id="stop2394" offset="1" style="stop-color:#ac8b0b;stop-opacity:0"/></linearGradient><linearGradient id="linearGradient2119"><stop style="stop-color:#d2b32a;stop-opacity:.56730771" id="stop2121" offset="0"/><stop id="stop2378" offset=".11" style="stop-color:#ffeb3f;stop-opacity:.72156864"/><stop style="stop-color:#fff493;stop-opacity:.23076923" id="stop2123" offset="1"/></linearGradient><linearGradient id="linearGradient2041"><stop style="stop-color:#d9d9d9;stop-opacity:1" id="stop2043" offset="0"/><stop style="stop-color:#d9d9d9;stop-opacity:0" id="stop2045" offset="1"/></linearGradient><linearGradient id="linearGradient2125" x1="333.571" x2="564.286" y1="459.005" y2="459.005" gradientTransform="translate(0.000000,-5.103373e-6)" gradientUnits="userSpaceOnUse" xlink:href="#linearGradient2119"/><linearGradient id="linearGradient2376" x1="336.156" x2="567" y1="504.344" y2="504.344" gradientUnits="userSpaceOnUse" xlink:href="#linearGradient2119"/><radialGradient id="radialGradient2412" cx="208.841" cy="515.082" r="90" fx="208.841" fy="515.082" gradientTransform="matrix(1.826087,2.970972e-2,-1.529595e-2,0.987724,-166.6825,-0.415230)" gradientUnits="userSpaceOnUse" xlink:href="#linearGradient2414"/><radialGradient id="radialGradient2438" cx="208.841" cy="515.082" r="90" fx="208.841" fy="515.082" gradientTransform="matrix(1.848149,2.978268e-2,-1.548075e-2,0.990149,-170.5172,-1.812833)" gradientUnits="userSpaceOnUse" xlink:href="#linearGradient2414"/><radialGradient id="radialGradient2446" cx="208.841" cy="515.082" r="90" fx="208.841" fy="515.082" gradientTransform="matrix(1.847789,4.753482e-2,-3.481129e-2,1.394748,-160.4851,-213.9218)" gradientUnits="userSpaceOnUse" xlink:href="#linearGradient2448"/><linearGradient id="linearGradient2474" x1="333.571" x2="564.286" y1="459.005" y2="459.005" gradientTransform="translate(0.000000,-5.103373e-6)" gradientUnits="userSpaceOnUse" xlink:href="#linearGradient2119"/><linearGradient id="linearGradient2476" x1="336.156" x2="567" y1="504.344" y2="504.344" gradientUnits="userSpaceOnUse" xlink:href="#linearGradient2119"/><radialGradient id="radialGradient2478" cx="208.841" cy="515.082" r="90" fx="208.841" fy="515.082" gradientTransform="matrix(1.847789,4.753482e-2,-3.481129e-2,1.394748,-160.4851,-213.9218)" gradientUnits="userSpaceOnUse" xlink:href="#linearGradient2448"/><linearGradient id="linearGradient2484" x1="336.156" x2="567" y1="504.344" y2="504.344" gradientUnits="userSpaceOnUse" xlink:href="#linearGradient2119"/><linearGradient id="linearGradient2487" x1="333.571" x2="564.286" y1="459.005" y2="459.005" gradientTransform="translate(0.000000,-5.103373e-6)" gradientUnits="userSpaceOnUse" xlink:href="#linearGradient2119"/><radialGradient id="radialGradient2490" cx="208.841" cy="515.082" r="90" fx="208.841" fy="515.082" gradientTransform="matrix(1.847789,4.753482e-2,-3.481129e-2,1.394748,-160.4851,-213.9218)" gradientUnits="userSpaceOnUse" xlink:href="#linearGradient2448"/><linearGradient id="linearGradient2518" x1="333.571" x2="564.286" y1="459.005" y2="459.005" gradientTransform="translate(2.713108e-14,-5.103373e-6)" gradientUnits="userSpaceOnUse" xlink:href="#linearGradient2119"/><linearGradient id="linearGradient2520" x1="336.156" x2="567" y1="504.344" y2="504.344" gradientUnits="userSpaceOnUse" xlink:href="#linearGradient2119"/><radialGradient id="radialGradient2522" cx="208.841" cy="515.082" r="90" fx="208.841" fy="515.082" gradientTransform="matrix(1.847789,4.753482e-2,-3.481129e-2,1.394748,-160.4851,-213.9218)" gradientUnits="userSpaceOnUse" xlink:href="#linearGradient2448"/><linearGradient id="linearGradient2574" x1="336.156" x2="567" y1="504.344" y2="504.344" gradientTransform="matrix(4.409306e-2,0.000000,0.000000,4.859225e-2,-4.513441,-12.80832)" gradientUnits="userSpaceOnUse" xlink:href="#linearGradient2119"/><radialGradient id="radialGradient2601" cx="208.841" cy="515.082" r="90" fx="208.841" fy="515.082" gradientTransform="matrix(0.185453,4.990015e-3,-3.493835e-3,0.146415,-26.52784,-70.89360)" gradientUnits="userSpaceOnUse" xlink:href="#linearGradient2448"/><radialGradient id="radialGradient2609" cx="208.841" cy="515.082" r="90" fx="208.841" fy="515.082" gradientTransform="matrix(0.185453,4.990015e-3,-3.493835e-3,0.146415,-26.52784,-50.89360)" gradientUnits="userSpaceOnUse" xlink:href="#linearGradient2448"/><radialGradient id="radialGradient3592" cx="208.841" cy="515.082" r="90" fx="208.841" fy="515.082" gradientTransform="matrix(0.185453,4.990015e-3,-3.493835e-3,0.146415,-26.52784,-50.89360)" gradientUnits="userSpaceOnUse" xlink:href="#linearGradient2448"/></defs><metadata id="metadata7"/><g id="layer1" style="display:inline"><path style="opacity:1;fill:#dabf3c;fill-opacity:1;fill-rule:evenodd;stroke:none;stroke-width:1;stroke-linecap:butt;stroke-linejoin:round;stroke-miterlimit:4;stroke-dasharray:none;stroke-opacity:1" id="path1306" d="M 6.0687706,5.5000068 C 3.5305216,5.5000068 1.4779749,7.7367848 1.4779739,10.495714 C 1.4779739,13.254643 3.5305216,15.491421 6.0687706,15.491421 C 7.9729189,15.491421 9.6049210,14.232862 10.303000,12.438489 L 11.105274,12.438489 L 12.099495,12.546543 L 12.820169,11.915510 L 15.904068,12.238044 L 16.434364,12.384990 L 16.884626,12.238044 L 17.731472,12.238044 L 18.192037,11.112468 L 18.712030,11.945086 L 19.484591,11.945086 C 19.490439,11.945086 19.495398,11.949169 19.499448,11.945086 C 19.503498,11.941002 19.514305,11.936112 19.514305,11.929667 C 19.514305,11.929667 21.000000,10.449457 21.000000,10.449457 C 21.000000,10.449457 20.405722,8.6917088 20.405722,8.6917088 L 10.273286,8.4758448 C 9.5600655,6.7193618 7.9476756,5.5000068 6.0687706,5.5000068 z M 4.2265087,8.5991958 L 4.4196489,8.5991958 C 4.9282906,8.5991958 5.3407799,9.0450178 5.3407799,9.5860018 L 5.3407799,11.174143 C 5.3407799,11.715127 4.9282906,12.145531 4.4196489,12.145531 L 4.2265087,12.145531 C 3.7178680,12.145531 3.3053787,11.715127 3.3053787,11.174143 L 3.3053787,9.5860018 C 3.3053787,9.0450178 3.7178680,8.5991958 4.2265087,8.5991958 z"/><g id="g3586" transform="matrix(0.482501,0.000000,0.000000,0.500750,-0.580480,-0.442306)"><path id="path2380" d="M 13.750000,12.375000 C 8.7638665,12.375000 4.7187502,16.602894 4.7187500,21.812500 C 4.7187500,27.022106 8.7638668,31.250000 13.750000,31.250000 C 18.736133,31.250000 22.781250,27.022106 22.781250,21.812500 C 22.781250,16.602894 18.736133,12.375000 13.750000,12.375000 z M 9.9062500,18.000000 L 10.312500,18.000000 C 11.382373,18.000000 12.250000,18.903567 12.250000,20.000000 L 12.250000,23.218750 C 12.250000,24.315183 11.382373,25.187500 10.312500,25.187500 L 9.9062500,25.187500 C 8.8363774,25.187500 7.9687500,24.315183 7.9687500,23.218750 L 7.9687500,20.000000 C 7.9687500,18.903567 8.8363772,18.000000 9.9062500,18.000000 z" style="fill:url(#radialGradient3592);fill-opacity:1;fill-rule:evenodd;stroke:none;stroke-width:.31200001;stroke-linecap:butt;stroke-linejoin:round;stroke-miterlimit:4;stroke-opacity:1"/><path id="path2440" d="M 21.593750,17.156250 C 17.079155,17.492669 15.849116,19.744922 12.250000,22.187500 L 12.250000,23.218750 C 12.250000,24.315183 11.382373,25.187500 10.312500,25.187500 L 9.9062500,25.187500 C 9.2380920,25.187500 8.7214707,24.806852 8.3750000,24.281250 C 7.2850437,24.683838 6.2681979,24.885104 5.2500000,25.031250 C 6.5096603,28.658990 9.8445697,31.249999 13.750000,31.250000 C 18.736151,31.250001 22.781249,27.022118 22.781250,21.812500 C 22.781250,20.117611 22.343403,18.531564 21.593750,17.156250 z" style="opacity:.45405403;fill:#c4a00f;fill-opacity:1;fill-rule:evenodd;stroke:none;stroke-width:.31200001;stroke-linecap:butt;stroke-linejoin:round;stroke-miterlimit:4;stroke-opacity:1"/></g><path style="fill:none;fill-opacity:.94117647;fill-rule:evenodd;stroke:#ac8b0b;stroke-width:.5;stroke-linecap:butt;stroke-linejoin:round;stroke-miterlimit:4;stroke-dasharray:none;stroke-opacity:1" id="rect2420" d="M 4.2212106,8.6057318 L 4.4177425,8.6057318 C 4.9263840,8.6057318 5.3358677,9.0412518 5.3358677,9.5822348 L 5.3358677,11.170713 C 5.3358677,11.711696 4.9263840,12.147217 4.4177425,12.147217 L 4.2212106,12.147217 C 3.7125690,12.147217 3.3030862,11.711696 3.3030862,11.170713 L 3.3030862,9.5822348 C 3.3030862,9.0412518 3.7125690,8.6057318 4.2212106,8.6057318 z"/><path id="path3594" d="M 6.0687675,5.4999998 C 3.5305204,5.4999998 1.4779753,7.7367768 1.4779744,10.495706 C 1.4779744,13.254634 3.5305213,15.491411 6.0687675,15.491411 C 7.9729142,15.491411 9.5700514,14.302584 10.268129,12.508211 L 11.105268,12.508211 L 12.238949,12.509025 L 12.778951,11.566848 L 13.975888,12.447227 L 15.178085,11.575147 L 15.918000,12.516958 L 17.110949,12.516958 L 18.436084,11.458468 L 19.016920,12.363461 L 19.551769,12.363461 C 19.557617,12.363461 19.562577,12.367544 19.566626,12.363461 C 19.570676,12.359377 19.581484,12.354487 19.581484,12.348042 C 19.581484,12.348042 20.999987,10.449449 20.999987,10.449449 C 20.999988,10.449449 20.405709,8.4825090 20.405709,8.4825090 L 10.273280,8.4758368 C 9.5600602,6.7193548 7.9476719,5.5000008 6.0687675,5.4999998 z" style="opacity:1;fill:none;fill-opacity:1;fill-rule:evenodd;stroke:#ac8b0b;stroke-width:.9999994;stroke-linecap:butt;stroke-linejoin:miter;stroke-miterlimit:4;stroke-dasharray:none;stroke-opacity:1"/></g></svg>