<svg xmlns="http://www.w3.org/2000/svg" xmlns:cc="http://web.resource.org/cc/" xmlns:svg="http://www.w3.org/2000/svg" xmlns:xlink="http://www.w3.org/1999/xlink" id="svg2" width="22" height="22"><defs id="defs4"><linearGradient id="linearGradient2448"><stop id="stop2450" offset="0" style="stop-color:#c8a20b;stop-opacity:1"/><stop id="stop2452" offset="1" style="stop-color:#f7e87b;stop-opacity:1"/></linearGradient><linearGradient id="linearGradient2414"><stop style="stop-color:#f8e082;stop-opacity:1" id="stop2416" offset="0"/><stop style="stop-color:#cba40d;stop-opacity:1" id="stop2418" offset="1"/></linearGradient><linearGradient id="linearGradient2390"><stop id="stop2392" offset="0" style="stop-color:#ac8b0b;stop-opacity:1"/><stop id="stop2394" offset="1" style="stop-color:#ac8b0b;stop-opacity:0"/></linearGradient><linearGradient id="linearGradient2119"><stop style="stop-color:#d2b32a;stop-opacity:.56730771" id="stop2121" offset="0"/><stop id="stop2378" offset=".11" style="stop-color:#ffeb3f;stop-opacity:.72156864"/><stop style="stop-color:#fff493;stop-opacity:.23076923" id="stop2123" offset="1"/></linearGradient><linearGradient id="linearGradient2041"><stop style="stop-color:#d9d9d9;stop-opacity:1" id="stop2043" offset="0"/><stop style="stop-color:#d9d9d9;stop-opacity:0" id="stop2045" offset="1"/></linearGradient><linearGradient id="linearGradient2125" x1="333.571" x2="564.286" y1="459.005" y2="459.005" gradientTransform="translate(0.000000,-5.103373e-6)" gradientUnits="userSpaceOnUse" xlink:href="#linearGradient2119"/><linearGradient id="linearGradient2376" x1="336.156" x2="567" y1="504.344" y2="504.344" gradientUnits="userSpaceOnUse" xlink:href="#linearGradient2119"/><radialGradient id="radialGradient2412" cx="208.841" cy="515.082" r="90" fx="208.841" fy="515.082" gradientTransform="matrix(1.826087,2.970972e-2,-1.529595e-2,0.987724,-166.6825,-0.415230)" gradientUnits="userSpaceOnUse" xlink:href="#linearGradient2414"/><radialGradient id="radialGradient2438" cx="208.841" cy="515.082" r="90" fx="208.841" fy="515.082" gradientTransform="matrix(1.848149,2.978268e-2,-1.548075e-2,0.990149,-170.5172,-1.812833)" gradientUnits="userSpaceOnUse" xlink:href="#linearGradient2414"/><radialGradient id="radialGradient2446" cx="208.841" cy="515.082" r="90" fx="208.841" fy="515.082" gradientTransform="matrix(1.847789,4.753482e-2,-3.481129e-2,1.394748,-160.4851,-213.9218)" gradientUnits="userSpaceOnUse" xlink:href="#linearGradient2448"/><linearGradient id="linearGradient2474" x1="333.571" x2="564.286" y1="459.005" y2="459.005" gradientTransform="translate(0.000000,-5.103373e-6)" gradientUnits="userSpaceOnUse" xlink:href="#linearGradient2119"/><linearGradient id="linearGradient2476" x1="336.156" x2="567" y1="504.344" y2="504.344" gradientUnits="userSpaceOnUse" xlink:href="#linearGradient2119"/><radialGradient id="radialGradient2478" cx="208.841" cy="515.082" r="90" fx="208.841" fy="515.082" gradientTransform="matrix(1.847789,4.753482e-2,-3.481129e-2,1.394748,-160.4851,-213.9218)" gradientUnits="userSpaceOnUse" xlink:href="#linearGradient2448"/><linearGradient id="linearGradient2484" x1="336.156" x2="567" y1="504.344" y2="504.344" gradientUnits="userSpaceOnUse" xlink:href="#linearGradient2119"/><linearGradient id="linearGradient2487" x1="333.571" x2="564.286" y1="459.005" y2="459.005" gradientTransform="translate(0.000000,-5.103373e-6)" gradientUnits="userSpaceOnUse" xlink:href="#linearGradient2119"/><radialGradient id="radialGradient2490" cx="208.841" cy="515.082" r="90" fx="208.841" fy="515.082" gradientTransform="matrix(1.847789,4.753482e-2,-3.481129e-2,1.394748,-160.4851,-213.9218)" gradientUnits="userSpaceOnUse" xlink:href="#linearGradient2448"/><linearGradient id="linearGradient2518" x1="333.571" x2="564.286" y1="459.005" y2="459.005" gradientTransform="translate(2.713108e-14,-5.103373e-6)" gradientUnits="userSpaceOnUse" xlink:href="#linearGradient2119"/><linearGradient id="linearGradient2520" x1="336.156" x2="567" y1="504.344" y2="504.344" gradientUnits="userSpaceOnUse" xlink:href="#linearGradient2119"/><radialGradient id="radialGradient2522" cx="208.841" cy="515.082" r="90" fx="208.841" fy="515.082" gradientTransform="matrix(1.847789,4.753482e-2,-3.481129e-2,1.394748,-160.4851,-213.9218)" gradientUnits="userSpaceOnUse" xlink:href="#linearGradient2448"/><linearGradient id="linearGradient2574" x1="336.156" x2="567" y1="504.344" y2="504.344" gradientTransform="matrix(4.409306e-2,0.000000,0.000000,4.859225e-2,-4.513441,-12.80832)" gradientUnits="userSpaceOnUse" xlink:href="#linearGradient2119"/><radialGradient id="radialGradient2601" cx="208.841" cy="515.082" r="90" fx="208.841" fy="515.082" gradientTransform="matrix(0.185453,4.990015e-3,-3.493835e-3,0.146415,-26.52784,-70.89360)" gradientUnits="userSpaceOnUse" xlink:href="#linearGradient2448"/><radialGradient id="radialGradient2609" cx="208.841" cy="515.082" r="90" fx="208.841" fy="515.082" gradientTransform="matrix(0.185453,4.990015e-3,-3.493835e-3,0.146415,-26.52784,-50.89360)" gradientUnits="userSpaceOnUse" xlink:href="#linearGradient2448"/><radialGradient id="radialGradient3592" cx="208.841" cy="515.082" r="90" fx="208.841" fy="515.082" gradientTransform="matrix(0.185453,4.990015e-3,-3.493835e-3,0.146415,-26.52784,-50.89360)" gradientUnits="userSpaceOnUse" xlink:href="#linearGradient2448"/><radialGradient id="radialGradient1381" cx="16.215" cy="19.836" r="13.565" fx="16.215" fy="19.836" gradientTransform="matrix(1.000000,0.000000,0.000000,0.681917,0.000000,8.233773)" gradientUnits="userSpaceOnUse" xlink:href="#linearGradient4344"/><linearGradient id="linearGradient1372" x1="30.936" x2="30.936" y1="29.553" y2="35.803" gradientTransform="translate(-12.41789,-7.000000)" gradientUnits="userSpaceOnUse" xlink:href="#linearGradient3824"/><linearGradient id="linearGradient1369" x1="20.662" x2="22.627" y1="35.818" y2="36.218" gradientTransform="matrix(0.983375,0.181588,-0.181588,0.983375,-7.072120,-9.824920)" gradientUnits="userSpaceOnUse" xlink:href="#linearGradient4356"/><linearGradient id="linearGradient1366" x1="22.687" x2="21.408" y1="36.39" y2="35.74" gradientTransform="matrix(-0.977685,0.210075,0.210075,0.977685,41.80576,-11.11866)" gradientUnits="userSpaceOnUse" xlink:href="#linearGradient4356"/><linearGradient id="linearGradient4374" x1="22.687" x2="21.408" y1="36.39" y2="35.74" gradientTransform="matrix(-0.977685,0.210075,0.210075,0.977685,41.80576,-11.11866)" gradientUnits="userSpaceOnUse" xlink:href="#linearGradient4356"/><linearGradient id="linearGradient4372" x1="20.662" x2="22.627" y1="35.818" y2="36.218" gradientTransform="matrix(0.983375,0.181588,-0.181588,0.983375,-7.072120,-9.824920)" gradientUnits="userSpaceOnUse" xlink:href="#linearGradient4356"/><linearGradient id="linearGradient4366" x1="22.687" x2="21.408" y1="36.39" y2="35.74" gradientTransform="matrix(-0.977685,0.210075,0.210075,0.977685,55.10960,-3.945209)" gradientUnits="userSpaceOnUse" xlink:href="#linearGradient4356"/><linearGradient id="linearGradient4362" x1="20.662" x2="22.627" y1="35.818" y2="36.218" gradientTransform="matrix(0.983375,0.181588,-0.181588,0.983375,6.231716,-2.651466)" gradientUnits="userSpaceOnUse" xlink:href="#linearGradient4356"/><radialGradient id="radialGradient4350" cx="16.215" cy="19.836" r="13.565" fx="16.215" fy="19.836" gradientTransform="matrix(1.000000,0.000000,0.000000,0.681917,0.000000,8.233773)" gradientUnits="userSpaceOnUse" xlink:href="#linearGradient4344"/><radialGradient id="radialGradient4336" cx="31.113" cy="19.009" r="8.662" fx="31.113" fy="19.009" gradientUnits="userSpaceOnUse" xlink:href="#linearGradient3816"/><linearGradient id="linearGradient4332" x1="30.936" x2="30.936" y1="29.553" y2="35.803" gradientTransform="translate(-13.12500,-7.000000)" gradientUnits="userSpaceOnUse" xlink:href="#linearGradient3824"/><radialGradient id="radialGradient4330" cx="31.113" cy="19.009" r="8.662" fx="31.113" fy="19.009" gradientUnits="userSpaceOnUse" xlink:href="#linearGradient3816"/><radialGradient id="radialGradient4328" cx="29.345" cy="17.064" r="9.162" fx="29.345" fy="17.064" gradientTransform="matrix(0.787998,3.877637e-16,-3.877637e-16,0.787998,6.221198,3.617627)" gradientUnits="userSpaceOnUse" xlink:href="#linearGradient4338"/><linearGradient id="linearGradient4326" x1="30.936" x2="30.936" y1="29.553" y2="35.803" gradientTransform="translate(-12.41789,-7.000000)" gradientUnits="userSpaceOnUse" xlink:href="#linearGradient3824"/><radialGradient id="radialGradient4179" cx="31.113" cy="19.009" r="8.662" fx="31.113" fy="19.009" gradientUnits="userSpaceOnUse" xlink:href="#linearGradient3816"/><linearGradient id="linearGradient4175" x1="30.936" x2="30.936" y1="29.553" y2="35.803" gradientTransform="translate(0.707108,0.000000)" gradientUnits="userSpaceOnUse" xlink:href="#linearGradient3824"/><radialGradient id="radialGradient4171" cx="29.345" cy="17.064" r="9.162" fx="29.345" fy="17.064" gradientTransform="matrix(0.787998,3.877637e-16,-3.877637e-16,0.787998,6.221198,3.617627)" gradientUnits="userSpaceOnUse" xlink:href="#linearGradient3800"/><radialGradient id="radialGradient4169" cx="28.09" cy="27.203" r="13.565" fx="28.09" fy="27.203" gradientTransform="matrix(1.297564,2.881172e-16,-1.964720e-16,0.884831,-8.358505,4.940469)" gradientUnits="userSpaceOnUse" xlink:href="#linearGradient4163"/><linearGradient id="linearGradient3830" x1="30.936" x2="30.936" y1="29.553" y2="35.803" gradientUnits="userSpaceOnUse" xlink:href="#linearGradient3824"/><radialGradient id="radialGradient3822" cx="31.113" cy="19.009" r="8.662" fx="31.113" fy="19.009" gradientUnits="userSpaceOnUse" xlink:href="#linearGradient3816"/><radialGradient id="radialGradient3806" cx="29.345" cy="17.064" r="9.162" fx="29.345" fy="17.064" gradientUnits="userSpaceOnUse" xlink:href="#linearGradient3800"/><linearGradient id="linearGradient3800"><stop id="stop3802" offset="0" style="stop-color:#f4d9b1;stop-opacity:1"/><stop id="stop3804" offset="1" style="stop-color:#df9725;stop-opacity:1"/></linearGradient><linearGradient id="linearGradient3816"><stop id="stop3818" offset="0" style="stop-color:#000;stop-opacity:1"/><stop id="stop3820" offset="1" style="stop-color:#000;stop-opacity:0"/></linearGradient><linearGradient id="linearGradient3824"><stop id="stop3826" offset="0" style="stop-color:#fff;stop-opacity:1"/><stop id="stop3828" offset="1" style="stop-color:#c9c9c9;stop-opacity:1"/></linearGradient><linearGradient id="linearGradient4163"><stop id="stop4165" offset="0" style="stop-color:#3b74bc;stop-opacity:1"/><stop id="stop4167" offset="1" style="stop-color:#2d5990;stop-opacity:1"/></linearGradient><linearGradient id="linearGradient4338"><stop style="stop-color:#e9b15e;stop-opacity:1" id="stop4340" offset="0"/><stop style="stop-color:#966416;stop-opacity:1" id="stop4342" offset="1"/></linearGradient><linearGradient id="linearGradient4344"><stop id="stop4346" offset="0" style="stop-color:#727e0a;stop-opacity:1"/><stop id="stop4348" offset="1" style="stop-color:#5b6508;stop-opacity:1"/></linearGradient><linearGradient id="linearGradient4356"><stop id="stop4358" offset="0" style="stop-color:#000;stop-opacity:1"/><stop id="stop4360" offset="1" style="stop-color:#000;stop-opacity:0"/></linearGradient><radialGradient id="radialGradient2323" cx="28.09" cy="27.203" r="13.565" fx="28.09" fy="27.203" gradientTransform="matrix(1.297564,2.881172e-16,-1.964720e-16,0.884831,-8.358505,4.940469)" gradientUnits="userSpaceOnUse" xlink:href="#linearGradient4163"/><linearGradient id="linearGradient2325" x1="30.936" x2="30.936" y1="29.553" y2="35.803" gradientUnits="userSpaceOnUse" xlink:href="#linearGradient3824"/><radialGradient id="radialGradient2327" cx="31.113" cy="19.009" r="8.662" fx="31.113" fy="19.009" gradientUnits="userSpaceOnUse" xlink:href="#linearGradient3816"/><radialGradient id="radialGradient2329" cx="29.345" cy="17.064" r="9.162" fx="29.345" fy="17.064" gradientTransform="matrix(0.787998,3.877637e-16,-3.877637e-16,0.787998,6.221198,3.617627)" gradientUnits="userSpaceOnUse" xlink:href="#linearGradient3800"/><linearGradient id="linearGradient2331" x1="20.662" x2="22.627" y1="35.818" y2="36.218" gradientTransform="matrix(0.983375,0.181588,-0.181588,0.983375,6.231716,-2.651466)" gradientUnits="userSpaceOnUse" xlink:href="#linearGradient4356"/><linearGradient id="linearGradient2333" x1="22.687" x2="21.408" y1="36.39" y2="35.74" gradientTransform="matrix(-0.977685,0.210075,0.210075,0.977685,55.10960,-3.945209)" gradientUnits="userSpaceOnUse" xlink:href="#linearGradient4356"/><linearGradient id="linearGradient2336" x1="22.687" x2="21.408" y1="36.39" y2="35.74" gradientTransform="matrix(-0.446970,9.379891e-2,9.604041e-2,0.436538,25.53837,0.133289)" gradientUnits="userSpaceOnUse" xlink:href="#linearGradient4356"/><linearGradient id="linearGradient2339" x1="20.662" x2="22.627" y1="35.818" y2="36.218" gradientTransform="matrix(0.449572,8.107941e-2,-8.301695e-2,0.439079,3.192769,0.710948)" gradientUnits="userSpaceOnUse" xlink:href="#linearGradient4356"/><linearGradient id="linearGradient2348" x1="30.936" x2="30.936" y1="29.553" y2="35.803" gradientTransform="matrix(0.457172,0.000000,0.000000,0.446502,0.343803,1.894833)" gradientUnits="userSpaceOnUse" xlink:href="#linearGradient3824"/><radialGradient id="radialGradient2351" cx="28.09" cy="27.203" r="13.565" fx="28.09" fy="27.203" gradientTransform="matrix(0.593210,1.286449e-16,-8.982150e-17,0.395079,-3.477471,4.100762)" gradientUnits="userSpaceOnUse" xlink:href="#linearGradient4163"/></defs><metadata id="metadata7"/><g id="layer1" style="display:inline"><path style="opacity:1;fill:#dabf3c;fill-opacity:1;fill-rule:evenodd;stroke:none;stroke-width:1;stroke-linecap:butt;stroke-linejoin:round;stroke-miterlimit:4;stroke-dasharray:none;stroke-opacity:1" id="path1306" d="M 6.0687706,2.5000068 C 3.5305216,2.5000068 1.4779749,4.7367848 1.4779739,7.4957140 C 1.4779739,10.254643 3.5305216,12.491421 6.0687706,12.491421 C 7.9729189,12.491421 9.6049210,11.232862 10.303000,9.4384890 L 11.105274,9.4384890 L 12.099495,9.5465430 L 12.820169,8.9155100 L 15.904068,9.2380440 L 16.434364,9.3849900 L 16.884626,9.2380440 L 17.731472,9.2380440 L 18.192037,8.1124680 L 18.712030,8.9450860 L 19.484591,8.9450860 C 19.490439,8.9450860 19.495398,8.9491690 19.499448,8.9450860 C 19.503498,8.9410020 19.514305,8.9361120 19.514305,8.9296670 C 19.514305,8.9296670 21.000000,7.4494570 21.000000,7.4494570 C 21.000000,7.4494570 20.405722,5.6917088 20.405722,5.6917088 L 10.273286,5.4758448 C 9.5600655,3.7193618 7.9476756,2.5000068 6.0687706,2.5000068 z M 4.2265087,5.5991958 L 4.4196489,5.5991958 C 4.9282906,5.5991958 5.3407799,6.0450178 5.3407799,6.5860018 L 5.3407799,8.1741430 C 5.3407799,8.7151270 4.9282906,9.1455310 4.4196489,9.1455310 L 4.2265087,9.1455310 C 3.7178680,9.1455310 3.3053787,8.7151270 3.3053787,8.1741430 L 3.3053787,6.5860018 C 3.3053787,6.0450178 3.7178680,5.5991958 4.2265087,5.5991958 z"/><g id="g3586" transform="matrix(0.482501,0.000000,0.000000,0.500750,-0.580480,-3.442306)"><path id="path2380" d="M 13.750000,12.375000 C 8.7638665,12.375000 4.7187502,16.602894 4.7187500,21.812500 C 4.7187500,27.022106 8.7638668,31.250000 13.750000,31.250000 C 18.736133,31.250000 22.781250,27.022106 22.781250,21.812500 C 22.781250,16.602894 18.736133,12.375000 13.750000,12.375000 z M 9.9062500,18.000000 L 10.312500,18.000000 C 11.382373,18.000000 12.250000,18.903567 12.250000,20.000000 L 12.250000,23.218750 C 12.250000,24.315183 11.382373,25.187500 10.312500,25.187500 L 9.9062500,25.187500 C 8.8363774,25.187500 7.9687500,24.315183 7.9687500,23.218750 L 7.9687500,20.000000 C 7.9687500,18.903567 8.8363772,18.000000 9.9062500,18.000000 z" style="fill:url(#radialGradient3592);fill-opacity:1;fill-rule:evenodd;stroke:none;stroke-width:.31200001;stroke-linecap:butt;stroke-linejoin:round;stroke-miterlimit:4;stroke-opacity:1"/><path id="path2440" d="M 21.593750,17.156250 C 17.079155,17.492669 15.849116,19.744922 12.250000,22.187500 L 12.250000,23.218750 C 12.250000,24.315183 11.382373,25.187500 10.312500,25.187500 L 9.9062500,25.187500 C 9.2380920,25.187500 8.7214707,24.806852 8.3750000,24.281250 C 7.2850437,24.683838 6.2681979,24.885104 5.2500000,25.031250 C 6.5096603,28.658990 9.8445697,31.249999 13.750000,31.250000 C 18.736151,31.250001 22.781249,27.022118 22.781250,21.812500 C 22.781250,20.117611 22.343403,18.531564 21.593750,17.156250 z" style="opacity:.45405403;fill:#c4a00f;fill-opacity:1;fill-rule:evenodd;stroke:none;stroke-width:.31200001;stroke-linecap:butt;stroke-linejoin:round;stroke-miterlimit:4;stroke-opacity:1"/></g><path style="fill:none;fill-opacity:.94117647;fill-rule:evenodd;stroke:#ac8b0b;stroke-width:.5;stroke-linecap:butt;stroke-linejoin:round;stroke-miterlimit:4;stroke-dasharray:none;stroke-opacity:1" id="rect2420" d="M 4.2212106,5.6057318 L 4.4177425,5.6057318 C 4.9263840,5.6057318 5.3358677,6.0412518 5.3358677,6.5822348 L 5.3358677,8.1707130 C 5.3358677,8.7116960 4.9263840,9.1472170 4.4177425,9.1472170 L 4.2212106,9.1472170 C 3.7125690,9.1472170 3.3030862,8.7116960 3.3030862,8.1707130 L 3.3030862,6.5822348 C 3.3030862,6.0412518 3.7125690,5.6057318 4.2212106,5.6057318 z"/><path id="path3594" d="M 6.0687675,2.4999998 C 3.5305204,2.4999998 1.4779753,4.7367768 1.4779744,7.4957060 C 1.4779744,10.254634 3.5305213,12.491411 6.0687675,12.491411 C 7.9729142,12.491411 9.5700514,11.302584 10.268129,9.5082110 L 11.105268,9.5082110 L 12.238949,9.5090250 L 12.778951,8.5668480 L 13.975888,9.4472270 L 15.178085,8.5751470 L 15.918000,9.5169580 L 17.110949,9.5169580 L 18.436084,8.4584680 L 19.016920,9.3634610 L 19.551769,9.3634610 C 19.557617,9.3634610 19.562577,9.3675440 19.566626,9.3634610 C 19.570676,9.3593770 19.581484,9.3544870 19.581484,9.3480420 C 19.581484,9.3480420 20.999987,7.4494490 20.999987,7.4494490 C 20.999988,7.4494490 20.405709,5.4825090 20.405709,5.4825090 L 10.273280,5.4758368 C 9.5600602,3.7193548 7.9476719,2.5000008 6.0687675,2.4999998 z" style="opacity:1;fill:none;fill-opacity:1;fill-rule:evenodd;stroke:#ac8b0b;stroke-width:.9999994;stroke-linecap:butt;stroke-linejoin:miter;stroke-miterlimit:4;stroke-dasharray:none;stroke-opacity:1"/></g><g id="layer2"><g id="g2293" transform="matrix(0.457172,0.000000,0.000000,0.446502,0.343803,1.894833)" style="display:inline"><path style="opacity:1;color:#000;fill:url(#linearGradient1372);fill-opacity:1;fill-rule:evenodd;stroke:none;stroke-width:1px;stroke-linecap:round;stroke-linejoin:round;marker:none;marker-start:none;marker-mid:none;marker-end:none;stroke-miterlimit:4;stroke-dasharray:none;stroke-dashoffset:0;stroke-opacity:1;visibility:visible;display:inline;overflow:visible" id="path4173" d="M 22.583894,27.034641 L 26.826534,27.034641 L 24.351661,24.736544 L 23.821331,25.443651 L 23.291000,24.913321 L 22.583894,27.034641 z"/><path id="path4370" d="M 27.453661,32.743396 C 28.684912,32.162418 29.258041,30.741075 29.258041,30.741075 C 28.298921,26.698092 25.281892,23.898254 25.281892,23.898254 C 25.281892,23.898254 27.746485,30.240856 27.453661,32.743396 z" style="opacity:.22784807;color:#000;fill:url(#linearGradient1366);fill-opacity:1;fill-rule:evenodd;stroke:none;stroke-width:1px;stroke-linecap:round;stroke-linejoin:round;marker:none;marker-start:none;marker-mid:none;marker-end:none;stroke-miterlimit:4;stroke-dasharray:none;stroke-dashoffset:0;stroke-opacity:1;visibility:visible;display:inline;overflow:visible"/></g><path id="path4308" d="M 12.223954,20.485408 L 17.072996,20.485408 C 18.446891,20.485408 19.807105,19.993393 20.305689,18.591060 C 20.779155,17.259378 20.386507,14.723434 17.315448,12.671224 L 11.577415,12.671224 C 8.5063558,14.565571 8.1225704,17.156261 8.8296253,18.669991 C 9.5499432,20.212115 10.769242,20.485408 12.223954,20.485408 z" style="opacity:1;color:#000;fill:url(#radialGradient2351);fill-opacity:1;fill-rule:evenodd;stroke:#204a87;stroke-width:1.0000013px;stroke-linecap:round;stroke-linejoin:round;marker:none;marker-start:none;marker-mid:none;marker-end:none;stroke-miterlimit:4;stroke-dasharray:none;stroke-dashoffset:0;stroke-opacity:1;visibility:visible;display:inline;overflow:visible"/><path id="path4310" d="M 12.547224,13.381604 C 14.001936,14.644502 14.648475,19.222509 14.648475,19.222509 C 14.648475,19.222509 15.295013,14.644503 16.426457,13.302673 L 12.547224,13.381604 z" style="opacity:1;color:#000;fill:url(#linearGradient2348);fill-opacity:1;fill-rule:evenodd;stroke:none;stroke-width:1px;stroke-linecap:round;stroke-linejoin:round;marker:none;marker-start:none;marker-mid:none;marker-end:none;stroke-miterlimit:4;stroke-dasharray:none;stroke-dashoffset:0;stroke-opacity:1;visibility:visible;display:inline;overflow:visible"/><path style="opacity:1;color:#000;fill:#729fcf;fill-opacity:1;fill-rule:evenodd;stroke:none;stroke-width:1px;stroke-linecap:round;stroke-linejoin:round;marker:none;marker-start:none;marker-mid:none;marker-end:none;stroke-miterlimit:4;stroke-dasharray:none;stroke-dashoffset:0;stroke-opacity:1;visibility:visible;display:inline;overflow:visible" id="path4312" d="M 13.589320,13.855191 C 13.589320,13.855191 12.605795,14.596534 12.690524,15.489627 C 11.757332,14.685569 11.730521,13.144811 11.730521,13.144811 L 13.589320,13.855191 z"/><path id="path4316" d="M 15.618283,13.855191 C 15.618283,13.855191 16.601808,14.596534 16.517079,15.489627 C 17.450270,14.685569 17.477082,13.144811 17.477082,13.144811 L 15.618283,13.855191 z" style="opacity:1;color:#000;fill:#729fcf;fill-opacity:1;fill-rule:evenodd;stroke:none;stroke-width:1px;stroke-linecap:round;stroke-linejoin:round;marker:none;marker-start:none;marker-mid:none;marker-end:none;stroke-miterlimit:4;stroke-dasharray:none;stroke-dashoffset:0;stroke-opacity:1;visibility:visible;display:inline;overflow:visible"/><path style="opacity:1;color:#000;fill:url(#radialGradient2327);fill-opacity:1;fill-rule:evenodd;stroke:none;stroke-width:1px;stroke-linecap:round;stroke-linejoin:round;marker:none;marker-start:none;marker-mid:none;marker-end:none;stroke-miterlimit:4;stroke-dasharray:none;stroke-dashoffset:0;stroke-opacity:1;visibility:visible;display:inline;overflow:visible" id="path4318" d="M 39.774755 19.008621 A 8.6620579 8.6620579 0 1 1 22.450640,19.008621 A 8.6620579 8.6620579 0 1 1 39.774755 19.008621 z" transform="matrix(0.457172,0.000000,0.000000,0.446502,0.286657,3.457590)"/><path style="color:#000;fill:url(#radialGradient2329);fill-opacity:1;fill-rule:evenodd;stroke:#c17d11;stroke-width:2.2044969;stroke-linecap:round;stroke-linejoin:miter;stroke-miterlimit:4;stroke-dashoffset:0;stroke-opacity:1;marker:none;marker-start:none;marker-mid:none;marker-end:none;visibility:visible;display:inline;overflow:visible;stroke-dasharray:none" id="path4320" d="M 39.774755,19.008621 C 39.774755,23.790077 35.894154,27.670679 31.112698,27.670679 C 26.331242,27.670679 22.450640,23.790077 22.450640,19.008621 C 22.450640,14.227165 26.331242,10.346563 31.112698,10.346563 C 35.894154,10.346563 39.774755,14.227165 39.774755,19.008621 z" transform="matrix(0.457172,0.000000,0.000000,0.446502,0.343803,1.894833)"/></g></svg>