<svg xmlns="http://www.w3.org/2000/svg" xmlns:cc="http://web.resource.org/cc/" xmlns:svg="http://www.w3.org/2000/svg" xmlns:xlink="http://www.w3.org/1999/xlink" id="svg2" width="48" height="48"><defs id="defs4"><linearGradient id="linearGradient2448"><stop id="stop2450" offset="0" style="stop-color:#c8a20b;stop-opacity:1"/><stop id="stop2452" offset="1" style="stop-color:#f7e87b;stop-opacity:1"/></linearGradient><linearGradient id="linearGradient2414"><stop style="stop-color:#f8e082;stop-opacity:1" id="stop2416" offset="0"/><stop style="stop-color:#cba40d;stop-opacity:1" id="stop2418" offset="1"/></linearGradient><linearGradient id="linearGradient2390"><stop id="stop2392" offset="0" style="stop-color:#ac8b0b;stop-opacity:1"/><stop id="stop2394" offset="1" style="stop-color:#ac8b0b;stop-opacity:0"/></linearGradient><linearGradient id="linearGradient2119"><stop style="stop-color:#d2b32a;stop-opacity:.56730771" id="stop2121" offset="0"/><stop id="stop2378" offset=".11" style="stop-color:#ffeb3f;stop-opacity:.72156864"/><stop style="stop-color:#fff493;stop-opacity:.23076923" id="stop2123" offset="1"/></linearGradient><linearGradient id="linearGradient2041"><stop style="stop-color:#d9d9d9;stop-opacity:1" id="stop2043" offset="0"/><stop style="stop-color:#d9d9d9;stop-opacity:0" id="stop2045" offset="1"/></linearGradient><linearGradient id="linearGradient2125" x1="333.571" x2="564.286" y1="459.005" y2="459.005" gradientTransform="translate(0.000000,-5.103373e-6)" gradientUnits="userSpaceOnUse" xlink:href="#linearGradient2119"/><linearGradient id="linearGradient2376" x1="336.156" x2="567" y1="504.344" y2="504.344" gradientUnits="userSpaceOnUse" xlink:href="#linearGradient2119"/><radialGradient id="radialGradient2412" cx="208.841" cy="515.082" r="90" fx="208.841" fy="515.082" gradientTransform="matrix(1.826087,2.970972e-2,-1.529595e-2,0.987724,-166.6825,-0.415230)" gradientUnits="userSpaceOnUse" xlink:href="#linearGradient2414"/><radialGradient id="radialGradient2438" cx="208.841" cy="515.082" r="90" fx="208.841" fy="515.082" gradientTransform="matrix(1.848149,2.978268e-2,-1.548075e-2,0.990149,-170.5172,-1.812833)" gradientUnits="userSpaceOnUse" xlink:href="#linearGradient2414"/><radialGradient id="radialGradient2446" cx="208.841" cy="515.082" r="90" fx="208.841" fy="515.082" gradientTransform="matrix(1.847789,4.753482e-2,-3.481129e-2,1.394748,-160.4851,-213.9218)" gradientUnits="userSpaceOnUse" xlink:href="#linearGradient2448"/><linearGradient id="linearGradient2474" x1="333.571" x2="564.286" y1="459.005" y2="459.005" gradientTransform="translate(0.000000,-5.103373e-6)" gradientUnits="userSpaceOnUse" xlink:href="#linearGradient2119"/><linearGradient id="linearGradient2476" x1="336.156" x2="567" y1="504.344" y2="504.344" gradientUnits="userSpaceOnUse" xlink:href="#linearGradient2119"/><radialGradient id="radialGradient2478" cx="208.841" cy="515.082" r="90" fx="208.841" fy="515.082" gradientTransform="matrix(1.847789,4.753482e-2,-3.481129e-2,1.394748,-160.4851,-213.9218)" gradientUnits="userSpaceOnUse" xlink:href="#linearGradient2448"/><linearGradient id="linearGradient2484" x1="336.156" x2="567" y1="504.344" y2="504.344" gradientUnits="userSpaceOnUse" xlink:href="#linearGradient2119"/><linearGradient id="linearGradient2487" x1="333.571" x2="564.286" y1="459.005" y2="459.005" gradientTransform="translate(0.000000,-5.103373e-6)" gradientUnits="userSpaceOnUse" xlink:href="#linearGradient2119"/><radialGradient id="radialGradient2490" cx="208.841" cy="515.082" r="90" fx="208.841" fy="515.082" gradientTransform="matrix(1.847789,4.753482e-2,-3.481129e-2,1.394748,-160.4851,-213.9218)" gradientUnits="userSpaceOnUse" xlink:href="#linearGradient2448"/><linearGradient id="linearGradient2518" x1="333.571" x2="564.286" y1="459.005" y2="459.005" gradientTransform="translate(2.713108e-14,-5.103373e-6)" gradientUnits="userSpaceOnUse" xlink:href="#linearGradient2119"/><linearGradient id="linearGradient2520" x1="336.156" x2="567" y1="504.344" y2="504.344" gradientUnits="userSpaceOnUse" xlink:href="#linearGradient2119"/><radialGradient id="radialGradient2522" cx="208.841" cy="515.082" r="90" fx="208.841" fy="515.082" gradientTransform="matrix(1.847789,4.753482e-2,-3.481129e-2,1.394748,-160.4851,-213.9218)" gradientUnits="userSpaceOnUse" xlink:href="#linearGradient2448"/><radialGradient id="radialGradient2601" cx="208.841" cy="515.082" r="90" fx="208.841" fy="515.082" gradientTransform="matrix(0.185453,4.990015e-3,-3.493835e-3,0.146415,-26.52784,-70.89360)" gradientUnits="userSpaceOnUse" xlink:href="#linearGradient2448"/><radialGradient id="radialGradient2609" cx="208.841" cy="515.082" r="90" fx="208.841" fy="515.082" gradientTransform="matrix(0.185453,4.990015e-3,-3.493835e-3,0.146415,-26.52784,-50.89360)" gradientUnits="userSpaceOnUse" xlink:href="#linearGradient2448"/><linearGradient id="linearGradient1359" x1="333.571" x2="564.286" y1="459.005" y2="459.005" gradientTransform="matrix(9.274505e-2,0.000000,0.000000,9.848387e-2,-8.477303,-25.38746)" gradientUnits="userSpaceOnUse" xlink:href="#linearGradient2119"/><linearGradient id="linearGradient1361" x1="336.156" x2="567" y1="504.344" y2="504.344" gradientTransform="matrix(9.274505e-2,0.000000,0.000000,9.848387e-2,-8.477303,-25.38746)" gradientUnits="userSpaceOnUse" xlink:href="#linearGradient2119"/><radialGradient id="radialGradient1363" cx="208.841" cy="515.082" r="90" fx="208.841" fy="515.082" gradientTransform="matrix(0.188214,5.064316e-3,-3.545858e-3,0.148595,-27.12757,-51.97619)" gradientUnits="userSpaceOnUse" xlink:href="#linearGradient2448"/><radialGradient id="radialGradient1381" cx="16.215" cy="19.836" r="13.565" fx="16.215" fy="19.836" gradientTransform="matrix(1.000000,0.000000,0.000000,0.681917,0.000000,8.233773)" gradientUnits="userSpaceOnUse" xlink:href="#linearGradient4344"/><linearGradient id="linearGradient1372" x1="30.936" x2="30.936" y1="29.553" y2="35.803" gradientTransform="translate(-12.41789,-7.000000)" gradientUnits="userSpaceOnUse" xlink:href="#linearGradient3824"/><linearGradient id="linearGradient1369" x1="20.662" x2="22.627" y1="35.818" y2="36.218" gradientTransform="matrix(0.983375,0.181588,-0.181588,0.983375,-7.072120,-9.824920)" gradientUnits="userSpaceOnUse" xlink:href="#linearGradient4356"/><linearGradient id="linearGradient1366" x1="22.687" x2="21.408" y1="36.39" y2="35.74" gradientTransform="matrix(-0.977685,0.210075,0.210075,0.977685,41.80576,-11.11866)" gradientUnits="userSpaceOnUse" xlink:href="#linearGradient4356"/><linearGradient id="linearGradient4374" x1="22.687" x2="21.408" y1="36.39" y2="35.74" gradientTransform="matrix(-0.977685,0.210075,0.210075,0.977685,41.80576,-11.11866)" gradientUnits="userSpaceOnUse" xlink:href="#linearGradient4356"/><linearGradient id="linearGradient4372" x1="20.662" x2="22.627" y1="35.818" y2="36.218" gradientTransform="matrix(0.983375,0.181588,-0.181588,0.983375,-7.072120,-9.824920)" gradientUnits="userSpaceOnUse" xlink:href="#linearGradient4356"/><linearGradient id="linearGradient4366" x1="22.687" x2="21.408" y1="36.39" y2="35.74" gradientTransform="matrix(-0.977685,0.210075,0.210075,0.977685,55.10960,-3.945209)" gradientUnits="userSpaceOnUse" xlink:href="#linearGradient4356"/><linearGradient id="linearGradient4362" x1="20.662" x2="22.627" y1="35.818" y2="36.218" gradientTransform="matrix(0.983375,0.181588,-0.181588,0.983375,6.231716,-2.651466)" gradientUnits="userSpaceOnUse" xlink:href="#linearGradient4356"/><radialGradient id="radialGradient4350" cx="16.215" cy="19.836" r="13.565" fx="16.215" fy="19.836" gradientTransform="matrix(1.000000,0.000000,0.000000,0.681917,0.000000,8.233773)" gradientUnits="userSpaceOnUse" xlink:href="#linearGradient4344"/><radialGradient id="radialGradient4336" cx="31.113" cy="19.009" r="8.662" fx="31.113" fy="19.009" gradientUnits="userSpaceOnUse" xlink:href="#linearGradient3816"/><linearGradient id="linearGradient4332" x1="30.936" x2="30.936" y1="29.553" y2="35.803" gradientTransform="translate(-13.12500,-7.000000)" gradientUnits="userSpaceOnUse" xlink:href="#linearGradient3824"/><radialGradient id="radialGradient4330" cx="31.113" cy="19.009" r="8.662" fx="31.113" fy="19.009" gradientUnits="userSpaceOnUse" xlink:href="#linearGradient3816"/><radialGradient id="radialGradient4328" cx="29.345" cy="17.064" r="9.162" fx="29.345" fy="17.064" gradientTransform="matrix(0.787998,3.877637e-16,-3.877637e-16,0.787998,6.221198,3.617627)" gradientUnits="userSpaceOnUse" xlink:href="#linearGradient4338"/><linearGradient id="linearGradient4326" x1="30.936" x2="30.936" y1="29.553" y2="35.803" gradientTransform="translate(-12.41789,-7.000000)" gradientUnits="userSpaceOnUse" xlink:href="#linearGradient3824"/><radialGradient id="radialGradient4179" cx="31.113" cy="19.009" r="8.662" fx="31.113" fy="19.009" gradientUnits="userSpaceOnUse" xlink:href="#linearGradient3816"/><linearGradient id="linearGradient4175" x1="30.936" x2="30.936" y1="29.553" y2="35.803" gradientTransform="translate(0.707108,0.000000)" gradientUnits="userSpaceOnUse" xlink:href="#linearGradient3824"/><radialGradient id="radialGradient4171" cx="29.345" cy="17.064" r="9.162" fx="29.345" fy="17.064" gradientTransform="matrix(0.787998,3.877637e-16,-3.877637e-16,0.787998,6.221198,3.617627)" gradientUnits="userSpaceOnUse" xlink:href="#linearGradient3800"/><radialGradient id="radialGradient4169" cx="28.09" cy="27.203" r="13.565" fx="28.09" fy="27.203" gradientTransform="matrix(1.297564,2.881172e-16,-1.964720e-16,0.884831,-8.358505,4.940469)" gradientUnits="userSpaceOnUse" xlink:href="#linearGradient4163"/><linearGradient id="linearGradient3830" x1="30.936" x2="30.936" y1="29.553" y2="35.803" gradientUnits="userSpaceOnUse" xlink:href="#linearGradient3824"/><radialGradient id="radialGradient3822" cx="31.113" cy="19.009" r="8.662" fx="31.113" fy="19.009" gradientUnits="userSpaceOnUse" xlink:href="#linearGradient3816"/><radialGradient id="radialGradient3806" cx="29.345" cy="17.064" r="9.162" fx="29.345" fy="17.064" gradientUnits="userSpaceOnUse" xlink:href="#linearGradient3800"/><linearGradient id="linearGradient3800"><stop id="stop3802" offset="0" style="stop-color:#f4d9b1;stop-opacity:1"/><stop id="stop3804" offset="1" style="stop-color:#df9725;stop-opacity:1"/></linearGradient><linearGradient id="linearGradient3816"><stop id="stop3818" offset="0" style="stop-color:#000;stop-opacity:1"/><stop id="stop3820" offset="1" style="stop-color:#000;stop-opacity:0"/></linearGradient><linearGradient id="linearGradient3824"><stop id="stop3826" offset="0" style="stop-color:#fff;stop-opacity:1"/><stop id="stop3828" offset="1" style="stop-color:#c9c9c9;stop-opacity:1"/></linearGradient><linearGradient id="linearGradient4163"><stop id="stop4165" offset="0" style="stop-color:#3b74bc;stop-opacity:1"/><stop id="stop4167" offset="1" style="stop-color:#2d5990;stop-opacity:1"/></linearGradient><linearGradient id="linearGradient4338"><stop style="stop-color:#e9b15e;stop-opacity:1" id="stop4340" offset="0"/><stop style="stop-color:#966416;stop-opacity:1" id="stop4342" offset="1"/></linearGradient><linearGradient id="linearGradient4344"><stop id="stop4346" offset="0" style="stop-color:#727e0a;stop-opacity:1"/><stop id="stop4348" offset="1" style="stop-color:#5b6508;stop-opacity:1"/></linearGradient><linearGradient id="linearGradient4356"><stop id="stop4358" offset="0" style="stop-color:#000;stop-opacity:1"/><stop id="stop4360" offset="1" style="stop-color:#000;stop-opacity:0"/></linearGradient></defs><metadata id="metadata7"/><g id="layer1" style="display:inline"><g id="g1350" transform="translate(-1.000000,-6.000000)"><path id="path1306" d="M 13.781250,11.718750 C 8.4423149,11.718750 4.1250009,16.252117 4.1250000,21.843750 C 4.1250002,27.435382 8.4423153,31.968749 13.781250,31.968750 C 17.786423,31.968750 21.219167,29.417978 22.687500,25.781250 L 24.375000,25.781250 L 26.906250,24.375000 L 27.468750,25.781250 L 34.468750,25.375000 L 35.437500,23.906250 L 36.531250,25.375000 L 38.312500,25.375000 L 39.281250,23.093750 L 40.375000,24.781250 L 42.000000,24.781250 C 42.012300,24.781250 42.022731,24.789526 42.031250,24.781250 C 42.039768,24.772973 42.062501,24.763062 42.062500,24.750000 C 42.062500,24.750000 45.187500,21.750000 45.187500,21.750000 C 45.187501,21.750000 43.937500,18.187500 43.937500,18.187500 L 22.625000,17.750000 C 21.124817,14.190065 17.733327,11.718751 13.781250,11.718750 z M 9.9062500,18.000000 L 10.312500,18.000000 C 11.382373,18.000000 12.250000,18.903567 12.250000,20.000000 L 12.250000,23.218750 C 12.250000,24.315183 11.382373,25.187500 10.312500,25.187500 L 9.9062500,25.187500 C 8.8363774,25.187500 7.9687500,24.315183 7.9687500,23.218750 L 7.9687500,20.000000 C 7.9687500,18.903567 8.8363772,18.000000 9.9062500,18.000000 z" style="opacity:1;fill:#dabf3c;fill-opacity:1;fill-rule:evenodd;stroke:none;stroke-width:1;stroke-linecap:butt;stroke-linejoin:round;stroke-miterlimit:4;stroke-dasharray:none;stroke-opacity:1"/><path id="rect2116" d="M 22.504203,18.754914 L 43.812998,19.068782 C 43.837600,19.068782 43.857404,19.085537 43.857404,19.106351 L 43.857404,20.096119 C 43.857404,20.116932 43.837600,20.133688 43.812998,20.133688 L 22.504203,19.819821 C 22.479603,19.819821 22.459797,19.803064 22.459797,19.782251 L 22.459797,18.792484 C 22.459797,18.771670 22.479603,18.754914 22.504203,18.754914 z" style="fill:url(#linearGradient1359);fill-opacity:1;fill-rule:evenodd;stroke:none;stroke-width:.31200001;stroke-linecap:butt;stroke-linejoin:round;stroke-miterlimit:4;stroke-opacity:1"/><path id="path2363" d="M 44.109140,22.592650 L 22.737203,22.638815 C 22.715573,22.638815 22.699524,22.687382 22.699525,22.749609 L 22.699525,25.577943 L 24.377446,25.577943 L 26.899137,24.171470 L 27.467200,25.577943 L 34.454960,25.184007 L 35.443275,23.694439 L 36.521436,25.184007 L 38.298083,25.184007 L 39.286398,22.906568 L 40.364559,24.593104 L 42.010784,24.593104 C 42.023084,24.593104 42.034146,24.589069 42.042665,24.580794 C 42.051182,24.572516 42.057157,24.560002 42.057156,24.546940 C 42.057156,24.546940 43.183241,23.474698 44.109140,22.592650 z" style="opacity:1;fill:url(#linearGradient1361);fill-opacity:1;fill-rule:evenodd;stroke:none;stroke-width:1;stroke-linecap:butt;stroke-linejoin:round;stroke-miterlimit:4;stroke-dasharray:none;stroke-opacity:1"/><path id="path2380" d="M 13.750003,12.234480 C 8.6896255,12.234480 4.5842774,16.525327 4.5842772,21.812504 C 4.5842772,27.099681 8.6896258,31.390529 13.750003,31.390529 C 18.810379,31.390529 22.915728,27.099681 22.915728,21.812504 C 22.915728,16.525327 18.810379,12.234480 13.750003,12.234480 z M 9.8490191,17.943236 L 10.261318,17.943236 C 11.347122,17.943236 12.227668,18.860257 12.227668,19.973016 L 12.227668,23.239693 C 12.227668,24.352452 11.347122,25.237758 10.261318,25.237758 L 9.8490191,25.237758 C 8.7632161,25.237758 7.8826697,24.352452 7.8826697,23.239693 L 7.8826697,19.973016 C 7.8826697,18.860257 8.7632159,17.943236 9.8490191,17.943236 z" style="fill:url(#radialGradient1363);fill-opacity:1;fill-rule:evenodd;stroke:none;stroke-width:.31200001;stroke-linecap:butt;stroke-linejoin:round;stroke-miterlimit:4;stroke-opacity:1"/><path id="path2440" d="M 21.710546,17.086923 C 17.128729,17.428351 15.880374,19.714140 12.227668,22.193088 L 12.227668,23.239693 C 12.227668,24.352452 11.347122,25.237758 10.261318,25.237758 L 9.8490191,25.237758 C 9.1709122,25.237758 8.6465984,24.851442 8.2949688,24.318014 C 7.1887830,24.726596 6.1567964,24.930859 5.1234375,25.079181 C 6.4018541,28.760938 9.7864203,31.390527 13.750003,31.390529 C 18.810397,31.390530 22.915727,27.099693 22.915728,21.812504 C 22.915728,20.092378 22.471361,18.482715 21.710546,17.086923 z" style="opacity:.45405403;fill:#c4a00f;fill-opacity:1;fill-rule:evenodd;stroke:none;stroke-width:.31200001;stroke-linecap:butt;stroke-linejoin:round;stroke-miterlimit:4;stroke-opacity:1"/><path id="rect2420" d="M 9.8951075,18.013262 L 10.308493,18.013262 C 11.378366,18.013262 12.239672,18.895949 12.239672,19.992382 L 12.239672,23.211815 C 12.239672,24.308248 11.378366,25.190936 10.308493,25.190936 L 9.8951075,25.190936 C 8.8252347,25.190936 7.9639292,24.308248 7.9639292,23.211815 L 7.9639292,19.992382 C 7.9639292,18.895949 8.8252347,18.013262 9.8951075,18.013262 z" style="fill:none;fill-opacity:.94117647;fill-rule:evenodd;stroke:#ac8b0b;stroke-width:1;stroke-linecap:butt;stroke-linejoin:round;stroke-miterlimit:4;stroke-dasharray:none;stroke-opacity:1"/><path style="opacity:1;fill:none;fill-opacity:1;fill-rule:evenodd;stroke:#ac8b0b;stroke-width:1;stroke-linecap:butt;stroke-linejoin:miter;stroke-miterlimit:4;stroke-dasharray:none;stroke-opacity:1" id="path3594" d="M 13.781250,11.718750 C 8.4423149,11.718750 4.1250009,16.252117 4.1250000,21.843750 C 4.1250002,27.435382 8.4423153,31.968749 13.781250,31.968750 C 17.786423,31.968750 21.219167,29.417978 22.687500,25.781250 L 24.375000,25.781250 L 26.906250,23.875000 L 27.968750,25.781250 L 33.968750,25.375000 L 35.437500,22.406250 L 37.031250,25.375000 L 38.312500,25.375000 L 39.281250,22.593750 L 40.875000,24.781250 L 42.000000,24.781250 C 42.012300,24.781250 42.022731,24.789526 42.031250,24.781250 C 42.039768,24.772973 42.062501,24.763062 42.062500,24.750000 C 42.062500,24.750000 45.187500,21.750000 45.187500,21.750000 C 45.187501,21.750000 43.937500,18.187500 43.937500,18.187500 L 22.625000,17.750000 C 21.124817,14.190065 17.733327,11.718751 13.781250,11.718750 z M 9.9062500,18.000000 L 10.312500,18.000000 C 11.382373,18.000000 12.250000,18.903567 12.250000,20.000000 L 12.250000,23.218750 C 12.250000,24.315183 11.382373,25.187500 10.312500,25.187500 L 9.9062500,25.187500 C 8.8363774,25.187500 7.9687500,24.315183 7.9687500,23.218750 L 7.9687500,20.000000 C 7.9687500,18.903567 8.8363772,18.000000 9.9062500,18.000000 z"/></g><g id="g1467" transform="translate(1.469899,-0.136039)"><g style="display:inline" id="g1469"><path id="path4173" d="M 22.583894,27.034641 L 26.826534,27.034641 L 24.351661,24.736544 L 23.821331,25.443651 L 23.291000,24.913321 L 22.583894,27.034641 z" style="opacity:1;color:#000;fill:url(#linearGradient1372);fill-opacity:1;fill-rule:evenodd;stroke:none;stroke-width:1px;stroke-linecap:round;stroke-linejoin:round;marker:none;marker-start:none;marker-mid:none;marker-end:none;stroke-miterlimit:4;stroke-dasharray:none;stroke-dashoffset:0;stroke-opacity:1;visibility:visible;display:inline;overflow:visible"/><path style="opacity:.22784807;color:#000;fill:url(#linearGradient1366);fill-opacity:1;fill-rule:evenodd;stroke:none;stroke-width:1px;stroke-linecap:round;stroke-linejoin:round;marker:none;marker-start:none;marker-mid:none;marker-end:none;stroke-miterlimit:4;stroke-dasharray:none;stroke-dashoffset:0;stroke-opacity:1;visibility:visible;display:inline;overflow:visible" id="path4370" d="M 27.453661,32.743396 C 28.684912,32.162418 29.258041,30.741075 29.258041,30.741075 C 28.298921,26.698092 25.281892,23.898254 25.281892,23.898254 C 25.281892,23.898254 27.746485,30.240856 27.453661,32.743396 z"/></g><g style="display:inline" id="layer2"><path id="path4308" d="M 25.986174,41.636039 L 36.592776,41.636039 C 39.597980,41.636039 42.573260,40.534107 43.663843,37.393398 C 44.699482,34.410922 43.840620,28.731340 37.123106,24.135146 L 24.571960,24.135146 C 17.854446,28.377786 17.014969,34.179977 18.561553,37.570174 C 20.137148,41.023964 22.804193,41.636039 25.986174,41.636039 z" style="opacity:1;color:#000;fill:url(#radialGradient4169);fill-opacity:1;fill-rule:evenodd;stroke:#204a87;stroke-width:1px;stroke-linecap:round;stroke-linejoin:round;marker:none;marker-start:none;marker-mid:none;marker-end:none;stroke-miterlimit:4;stroke-dasharray:none;stroke-dashoffset:0;stroke-opacity:1;visibility:visible;display:inline;overflow:visible"/><path id="path4310" d="M 26.693281,25.726136 C 29.875261,28.554563 31.289475,38.807612 31.289475,38.807612 C 31.289475,38.807612 32.703688,28.554564 35.178562,25.549360 L 26.693281,25.726136 z" style="opacity:1;color:#000;fill:url(#linearGradient3830);fill-opacity:1;fill-rule:evenodd;stroke:none;stroke-width:1px;stroke-linecap:round;stroke-linejoin:round;marker:none;marker-start:none;marker-mid:none;marker-end:none;stroke-miterlimit:4;stroke-dasharray:none;stroke-dashoffset:0;stroke-opacity:1;visibility:visible;display:inline;overflow:visible"/><path style="opacity:1;color:#000;fill:#729fcf;fill-opacity:1;fill-rule:evenodd;stroke:none;stroke-width:1px;stroke-linecap:round;stroke-linejoin:round;marker:none;marker-start:none;marker-mid:none;marker-end:none;stroke-miterlimit:4;stroke-dasharray:none;stroke-dashoffset:0;stroke-opacity:1;visibility:visible;display:inline;overflow:visible" id="path4312" d="M 28.972721,26.786797 C 28.972721,26.786797 26.821398,28.447132 27.006730,30.447330 C 24.965504,28.646536 24.906857,25.195806 24.906857,25.195806 L 28.972721,26.786797 z"/><path style="opacity:.21518983;color:#000;fill:none;fill-opacity:1;fill-rule:evenodd;stroke:#fff;stroke-width:.99999976px;stroke-linecap:round;stroke-linejoin:round;marker:none;marker-start:none;marker-mid:none;marker-end:none;stroke-miterlimit:4;stroke-dasharray:none;stroke-dashoffset:0;stroke-opacity:1;visibility:visible;display:inline;overflow:visible" id="path4314" d="M 25.914862,40.593933 L 36.408309,40.571836 C 39.048032,40.571836 41.661470,39.603917 42.619421,36.845169 C 43.529110,34.225409 42.524699,29.236555 36.624142,25.199332 L 25.099417,24.956264 C 19.198860,28.682931 18.056797,33.779483 19.437388,37.000446 C 20.817980,40.221409 22.832599,40.571836 25.914862,40.593933 z"/><path id="path4316" d="M 33.410795,26.786797 C 33.410795,26.786797 35.562118,28.447132 35.376786,30.447330 C 37.418012,28.646536 37.476659,25.195806 37.476659,25.195806 L 33.410795,26.786797 z" style="opacity:1;color:#000;fill:#729fcf;fill-opacity:1;fill-rule:evenodd;stroke:none;stroke-width:1px;stroke-linecap:round;stroke-linejoin:round;marker:none;marker-start:none;marker-mid:none;marker-end:none;stroke-miterlimit:4;stroke-dasharray:none;stroke-dashoffset:0;stroke-opacity:1;visibility:visible;display:inline;overflow:visible"/><path style="opacity:1;color:#000;fill:url(#radialGradient3822);fill-opacity:1;fill-rule:evenodd;stroke:none;stroke-width:1px;stroke-linecap:round;stroke-linejoin:round;marker:none;marker-start:none;marker-mid:none;marker-end:none;stroke-miterlimit:4;stroke-dasharray:none;stroke-dashoffset:0;stroke-opacity:1;visibility:visible;display:inline;overflow:visible" id="path4318" d="M 39.774755 19.008621 A 8.6620579 8.6620579 0 1 1 22.450640,19.008621 A 8.6620579 8.6620579 0 1 1 39.774755 19.008621 z" transform="translate(-0.125000,3.500000)"/><path id="path4320" d="M 39.774755 19.008621 A 8.6620579 8.6620579 0 1 1 22.450640,19.008621 A 8.6620579 8.6620579 0 1 1 39.774755 19.008621 z" style="opacity:1;color:#000;fill:url(#radialGradient4171);fill-opacity:1;fill-rule:evenodd;stroke:#c17d11;stroke-width:1px;stroke-linecap:round;stroke-linejoin:round;marker:none;marker-start:none;marker-mid:none;marker-end:none;stroke-miterlimit:4;stroke-dasharray:none;stroke-dashoffset:0;stroke-opacity:1;visibility:visible;display:inline;overflow:visible"/><path style="opacity:.19620253;color:#000;fill:none;fill-opacity:1;fill-rule:evenodd;stroke:#fff;stroke-width:1.1401283px;stroke-linecap:round;stroke-linejoin:round;marker:none;marker-start:none;marker-mid:none;marker-end:none;stroke-miterlimit:4;stroke-dasharray:none;stroke-dashoffset:0;stroke-opacity:1;visibility:visible;display:inline;overflow:visible" id="path4322" d="M 39.774755 19.008621 A 8.6620579 8.6620579 0 1 1 22.450640,19.008621 A 8.6620579 8.6620579 0 1 1 39.774755 19.008621 z" transform="matrix(0.877095,0.000000,0.000000,0.877095,3.823927,2.336267)"/><path id="path4354" d="M 21.851790,40.775197 C 20.604183,40.230228 20.045796,38.916920 20.045796,38.916920 C 20.887077,34.847784 23.765721,31.870704 23.765721,31.870704 C 23.765721,31.870704 21.486400,38.282218 21.851790,40.775197 z" style="opacity:.22784807;color:#000;fill:url(#linearGradient4362);fill-opacity:1;fill-rule:evenodd;stroke:none;stroke-width:1px;stroke-linecap:round;stroke-linejoin:round;marker:none;marker-start:none;marker-mid:none;marker-end:none;stroke-miterlimit:4;stroke-dasharray:none;stroke-dashoffset:0;stroke-opacity:1;visibility:visible;display:inline;overflow:visible"/><path style="opacity:.22784807;color:#000;fill:url(#linearGradient4366);fill-opacity:1;fill-rule:evenodd;stroke:none;stroke-width:1px;stroke-linecap:round;stroke-linejoin:round;marker:none;marker-start:none;marker-mid:none;marker-end:none;stroke-miterlimit:4;stroke-dasharray:none;stroke-dashoffset:0;stroke-opacity:1;visibility:visible;display:inline;overflow:visible" id="path4364" d="M 40.757497,39.916846 C 41.988748,39.335868 42.561877,37.914525 42.561877,37.914525 C 41.602757,33.871542 38.585728,31.071704 38.585728,31.071704 C 38.585728,31.071704 41.050321,37.414306 40.757497,39.916846 z"/></g></g></g></svg>