<svg xmlns="http://www.w3.org/2000/svg" xmlns:cc="http://web.resource.org/cc/" xmlns:svg="http://www.w3.org/2000/svg" xmlns:xlink="http://www.w3.org/1999/xlink" id="svg2" width="48" height="48"><defs id="defs4"><linearGradient id="linearGradient2448"><stop id="stop2450" offset="0" style="stop-color:#c8a20b;stop-opacity:1"/><stop id="stop2452" offset="1" style="stop-color:#f7e87b;stop-opacity:1"/></linearGradient><linearGradient id="linearGradient2414"><stop style="stop-color:#f8e082;stop-opacity:1" id="stop2416" offset="0"/><stop style="stop-color:#cba40d;stop-opacity:1" id="stop2418" offset="1"/></linearGradient><linearGradient id="linearGradient2390"><stop id="stop2392" offset="0" style="stop-color:#ac8b0b;stop-opacity:1"/><stop id="stop2394" offset="1" style="stop-color:#ac8b0b;stop-opacity:0"/></linearGradient><linearGradient id="linearGradient2119"><stop style="stop-color:#d2b32a;stop-opacity:.56730771" id="stop2121" offset="0"/><stop id="stop2378" offset=".11" style="stop-color:#ffeb3f;stop-opacity:.72156864"/><stop style="stop-color:#fff493;stop-opacity:.23076923" id="stop2123" offset="1"/></linearGradient><linearGradient id="linearGradient2041"><stop style="stop-color:#d9d9d9;stop-opacity:1" id="stop2043" offset="0"/><stop style="stop-color:#d9d9d9;stop-opacity:0" id="stop2045" offset="1"/></linearGradient><linearGradient id="linearGradient2125" x1="333.571" x2="564.286" y1="459.005" y2="459.005" gradientTransform="translate(0.000000,-5.103373e-6)" gradientUnits="userSpaceOnUse" xlink:href="#linearGradient2119"/><linearGradient id="linearGradient2376" x1="336.156" x2="567" y1="504.344" y2="504.344" gradientUnits="userSpaceOnUse" xlink:href="#linearGradient2119"/><radialGradient id="radialGradient2412" cx="208.841" cy="515.082" r="90" fx="208.841" fy="515.082" gradientTransform="matrix(1.826087,2.970972e-2,-1.529595e-2,0.987724,-166.6825,-0.415230)" gradientUnits="userSpaceOnUse" xlink:href="#linearGradient2414"/><radialGradient id="radialGradient2438" cx="208.841" cy="515.082" r="90" fx="208.841" fy="515.082" gradientTransform="matrix(1.848149,2.978268e-2,-1.548075e-2,0.990149,-170.5172,-1.812833)" gradientUnits="userSpaceOnUse" xlink:href="#linearGradient2414"/><radialGradient id="radialGradient2446" cx="208.841" cy="515.082" r="90" fx="208.841" fy="515.082" gradientTransform="matrix(1.847789,4.753482e-2,-3.481129e-2,1.394748,-160.4851,-213.9218)" gradientUnits="userSpaceOnUse" xlink:href="#linearGradient2448"/><linearGradient id="linearGradient2474" x1="333.571" x2="564.286" y1="459.005" y2="459.005" gradientTransform="translate(0.000000,-5.103373e-6)" gradientUnits="userSpaceOnUse" xlink:href="#linearGradient2119"/><linearGradient id="linearGradient2476" x1="336.156" x2="567" y1="504.344" y2="504.344" gradientUnits="userSpaceOnUse" xlink:href="#linearGradient2119"/><radialGradient id="radialGradient2478" cx="208.841" cy="515.082" r="90" fx="208.841" fy="515.082" gradientTransform="matrix(1.847789,4.753482e-2,-3.481129e-2,1.394748,-160.4851,-213.9218)" gradientUnits="userSpaceOnUse" xlink:href="#linearGradient2448"/><linearGradient id="linearGradient2484" x1="336.156" x2="567" y1="504.344" y2="504.344" gradientUnits="userSpaceOnUse" xlink:href="#linearGradient2119"/><linearGradient id="linearGradient2487" x1="333.571" x2="564.286" y1="459.005" y2="459.005" gradientTransform="translate(0.000000,-5.103373e-6)" gradientUnits="userSpaceOnUse" xlink:href="#linearGradient2119"/><radialGradient id="radialGradient2490" cx="208.841" cy="515.082" r="90" fx="208.841" fy="515.082" gradientTransform="matrix(1.847789,4.753482e-2,-3.481129e-2,1.394748,-160.4851,-213.9218)" gradientUnits="userSpaceOnUse" xlink:href="#linearGradient2448"/><linearGradient id="linearGradient2518" x1="333.571" x2="564.286" y1="459.005" y2="459.005" gradientTransform="translate(2.713108e-14,-5.103373e-6)" gradientUnits="userSpaceOnUse" xlink:href="#linearGradient2119"/><linearGradient id="linearGradient2520" x1="336.156" x2="567" y1="504.344" y2="504.344" gradientUnits="userSpaceOnUse" xlink:href="#linearGradient2119"/><radialGradient id="radialGradient2522" cx="208.841" cy="515.082" r="90" fx="208.841" fy="515.082" gradientTransform="matrix(1.847789,4.753482e-2,-3.481129e-2,1.394748,-160.4851,-213.9218)" gradientUnits="userSpaceOnUse" xlink:href="#linearGradient2448"/><radialGradient id="radialGradient2601" cx="208.841" cy="515.082" r="90" fx="208.841" fy="515.082" gradientTransform="matrix(0.185453,4.990015e-3,-3.493835e-3,0.146415,-26.52784,-70.89360)" gradientUnits="userSpaceOnUse" xlink:href="#linearGradient2448"/><radialGradient id="radialGradient2609" cx="208.841" cy="515.082" r="90" fx="208.841" fy="515.082" gradientTransform="matrix(0.185453,4.990015e-3,-3.493835e-3,0.146415,-26.52784,-50.89360)" gradientUnits="userSpaceOnUse" xlink:href="#linearGradient2448"/><radialGradient id="radialGradient6453" cx="37.496" cy="39.51" r="2.51" fx="37.496" fy="39.51" gradientTransform="matrix(0.690208,0.000000,0.000000,0.509229,41.19356,14.63972)" gradientUnits="userSpaceOnUse" xlink:href="#linearGradient6447"/><linearGradient id="linearGradient5719" x1="40.253" x2="36.452" y1="42.319" y2="38" gradientTransform="matrix(0.690208,0.000000,0.000000,0.514037,41.19356,14.44978)" gradientUnits="userSpaceOnUse" xlink:href="#linearGradient2214"/><linearGradient id="linearGradient4260" x1="11.048" x2="26.178" y1="9.146" y2="30.343" gradientTransform="matrix(0.688540,0.000000,0.000000,0.683265,41.26544,7.893606)" gradientUnits="userSpaceOnUse" xlink:href="#linearGradient4254"/><linearGradient id="linearGradient2244" x1="20.339" x2="48.845" y1="19.637" y2="49.731" gradientTransform="matrix(0.658117,0.000000,0.000000,0.654230,41.98145,8.677201)" gradientUnits="userSpaceOnUse" xlink:href="#linearGradient2238"/><radialGradient id="radialGradient2230" cx="24.042" cy="42.242" r="17.577" fx="24.042" fy="42.242" gradientTransform="matrix(1.000000,0.000000,0.000000,0.304598,4.154147e-15,29.37527)" gradientUnits="userSpaceOnUse" xlink:href="#linearGradient2224"/><linearGradient id="linearGradient2220" x1="8.653" x2="21.305" y1="9.587" y2="32.498" gradientTransform="matrix(0.660813,0.000000,0.000000,0.657306,41.89948,7.937102)" gradientUnits="userSpaceOnUse" xlink:href="#linearGradient5176"/><linearGradient id="linearGradient2212" x1="29.87" x2="24.842" y1="32.286" y2="14.158" gradientTransform="matrix(0.660813,0.000000,0.000000,0.657306,41.89948,7.937102)" gradientUnits="userSpaceOnUse" xlink:href="#linearGradient2206"/><linearGradient id="linearGradient2204" x1="23.119" x2="22.441" y1="9.583" y2="34.226" gradientTransform="matrix(0.655756,0.000000,0.000000,0.666506,42.05216,8.021331)" gradientUnits="userSpaceOnUse" xlink:href="#linearGradient2198"/><linearGradient id="linearGradient2198"><stop id="stop2200" offset="0" style="stop-color:#748f48;stop-opacity:1"/><stop id="stop2202" offset="1" style="stop-color:#1f2816;stop-opacity:1"/></linearGradient><linearGradient id="linearGradient2206"><stop id="stop2208" offset="0" style="stop-color:#777973;stop-opacity:1"/><stop id="stop2210" offset="1" style="stop-color:#cbccca;stop-opacity:1"/></linearGradient><linearGradient id="linearGradient2214"><stop id="stop2216" offset="0" style="stop-color:#a9aaa7;stop-opacity:1"/><stop id="stop2218" offset="1" style="stop-color:#676964;stop-opacity:1"/></linearGradient><linearGradient id="linearGradient2224"><stop id="stop2226" offset="0" style="stop-color:#32342f;stop-opacity:.54639173"/><stop id="stop2228" offset="1" style="stop-color:#32342f;stop-opacity:0"/></linearGradient><linearGradient id="linearGradient2238"><stop id="stop2240" offset="0" style="stop-color:#fff;stop-opacity:1"/><stop id="stop2242" offset="1" style="stop-color:#fff;stop-opacity:0"/></linearGradient><linearGradient id="linearGradient2673" x1="11.492" x2="17.199" y1="1.654" y2="26.729" gradientTransform="matrix(0.853205,0.000000,0.000000,0.618462,40.44688,9.798863)" gradientUnits="userSpaceOnUse" xlink:href="#linearGradient2667"/><linearGradient id="linearGradient2667"><stop style="stop-color:#fff;stop-opacity:1" id="stop2669" offset="0"/><stop style="stop-color:#fcfcff;stop-opacity:0" id="stop2671" offset="1"/></linearGradient><linearGradient id="linearGradient5176"><stop style="stop-color:#a2a59c;stop-opacity:1" id="stop5178" offset="0"/><stop style="stop-color:#535750;stop-opacity:1" id="stop5180" offset="1"/></linearGradient><linearGradient id="linearGradient4254"><stop id="stop4256" offset="0" style="stop-color:#616161;stop-opacity:1"/><stop id="stop4258" offset="1" style="stop-color:#a0a0a0;stop-opacity:1"/></linearGradient><linearGradient id="linearGradient6447"><stop id="stop6449" offset="0" style="stop-color:#777973;stop-opacity:1"/><stop id="stop6451" offset="1" style="stop-color:#777973;stop-opacity:0"/></linearGradient><linearGradient id="linearGradient1481" x1="333.571" x2="564.286" y1="459.005" y2="459.005" gradientTransform="matrix(9.274505e-2,0.000000,0.000000,9.848387e-2,-8.477303,-25.38746)" gradientUnits="userSpaceOnUse" xlink:href="#linearGradient2119"/><linearGradient id="linearGradient1483" x1="336.156" x2="567" y1="504.344" y2="504.344" gradientTransform="matrix(9.274505e-2,0.000000,0.000000,9.848387e-2,-8.477303,-25.38746)" gradientUnits="userSpaceOnUse" xlink:href="#linearGradient2119"/><radialGradient id="radialGradient1485" cx="208.841" cy="515.082" r="90" fx="208.841" fy="515.082" gradientTransform="matrix(0.185453,4.990015e-3,-3.493835e-3,0.146415,-26.52784,-50.89360)" gradientUnits="userSpaceOnUse" xlink:href="#linearGradient2448"/><linearGradient id="linearGradient1534" x1="29.87" x2="24.842" y1="32.286" y2="14.158" gradientTransform="matrix(0.660813,0.000000,0.000000,0.657306,41.89948,7.937102)" gradientUnits="userSpaceOnUse" xlink:href="#linearGradient2206"/><linearGradient id="linearGradient1536" x1="8.653" x2="21.305" y1="9.587" y2="32.498" gradientTransform="matrix(0.660813,0.000000,0.000000,0.657306,41.89948,7.937102)" gradientUnits="userSpaceOnUse" xlink:href="#linearGradient5176"/><linearGradient id="linearGradient1538" x1="23.119" x2="22.441" y1="9.583" y2="34.226" gradientTransform="matrix(0.655756,0.000000,0.000000,0.666506,42.05216,8.021331)" gradientUnits="userSpaceOnUse" xlink:href="#linearGradient2198"/><linearGradient id="linearGradient1540" x1="11.048" x2="26.178" y1="9.146" y2="30.343" gradientTransform="matrix(0.688540,0.000000,0.000000,0.683265,41.26544,7.893606)" gradientUnits="userSpaceOnUse" xlink:href="#linearGradient4254"/><linearGradient id="linearGradient1542" x1="20.339" x2="48.845" y1="19.637" y2="49.731" gradientTransform="matrix(0.658117,0.000000,0.000000,0.654230,41.98145,8.677201)" gradientUnits="userSpaceOnUse" xlink:href="#linearGradient2238"/><linearGradient id="linearGradient1544" x1="11.492" x2="17.199" y1="1.654" y2="26.729" gradientTransform="matrix(0.853205,0.000000,0.000000,0.618462,40.44688,9.798863)" gradientUnits="userSpaceOnUse" xlink:href="#linearGradient2667"/><radialGradient id="radialGradient1546" cx="37.496" cy="39.51" r="2.51" fx="37.496" fy="39.51" gradientTransform="matrix(0.690208,0.000000,0.000000,0.509229,41.19356,14.63972)" gradientUnits="userSpaceOnUse" xlink:href="#linearGradient6447"/><linearGradient id="linearGradient1548" x1="40.253" x2="36.452" y1="42.319" y2="38" gradientTransform="matrix(0.690208,0.000000,0.000000,0.514037,41.19356,14.44978)" gradientUnits="userSpaceOnUse" xlink:href="#linearGradient2214"/></defs><metadata id="metadata7"/><g id="layer1" style="display:inline"><g id="g1471" transform="translate(-2.340452,-5.300429)"><path id="path1306" d="M 13.781250,11.718750 C 8.4423149,11.718750 4.1250009,16.252117 4.1250000,21.843750 C 4.1250002,27.435382 8.4423153,31.968749 13.781250,31.968750 C 17.786423,31.968750 21.219167,29.417978 22.687500,25.781250 L 24.375000,25.781250 L 26.906250,24.375000 L 27.468750,25.781250 L 34.468750,25.375000 L 35.437500,23.906250 L 36.531250,25.375000 L 38.312500,25.375000 L 39.281250,23.093750 L 40.375000,24.781250 L 42.000000,24.781250 C 42.012300,24.781250 42.022731,24.789526 42.031250,24.781250 C 42.039768,24.772973 42.062501,24.763062 42.062500,24.750000 C 42.062500,24.750000 45.187500,21.750000 45.187500,21.750000 C 45.187501,21.750000 43.937500,18.187500 43.937500,18.187500 L 22.625000,17.750000 C 21.124817,14.190065 17.733327,11.718751 13.781250,11.718750 z M 9.9062500,18.000000 L 10.312500,18.000000 C 11.382373,18.000000 12.250000,18.903567 12.250000,20.000000 L 12.250000,23.218750 C 12.250000,24.315183 11.382373,25.187500 10.312500,25.187500 L 9.9062500,25.187500 C 8.8363774,25.187500 7.9687500,24.315183 7.9687500,23.218750 L 7.9687500,20.000000 C 7.9687500,18.903567 8.8363772,18.000000 9.9062500,18.000000 z" style="opacity:1;fill:#dabf3c;fill-opacity:1;fill-rule:evenodd;stroke:none;stroke-width:1;stroke-linecap:butt;stroke-linejoin:round;stroke-miterlimit:4;stroke-dasharray:none;stroke-opacity:1"/><path id="rect2116" d="M 22.504203,18.754914 L 43.812998,19.068782 C 43.837600,19.068782 43.857404,19.085537 43.857404,19.106351 L 43.857404,20.096119 C 43.857404,20.116932 43.837600,20.133688 43.812998,20.133688 L 22.504203,19.819821 C 22.479603,19.819821 22.459797,19.803064 22.459797,19.782251 L 22.459797,18.792484 C 22.459797,18.771670 22.479603,18.754914 22.504203,18.754914 z" style="fill:url(#linearGradient1481);fill-opacity:1;fill-rule:evenodd;stroke:none;stroke-width:.31200001;stroke-linecap:butt;stroke-linejoin:round;stroke-miterlimit:4;stroke-opacity:1"/><path id="path2363" d="M 44.109140,22.592650 L 22.737203,22.638815 C 22.715573,22.638815 22.699524,22.687382 22.699525,22.749609 L 22.699525,25.577943 L 24.377446,25.577943 L 26.899137,24.171470 L 27.467200,25.577943 L 34.454960,25.184007 L 35.443275,23.694439 L 36.521436,25.184007 L 38.298083,25.184007 L 39.286398,22.906568 L 40.364559,24.593104 L 42.010784,24.593104 C 42.023084,24.593104 42.034146,24.589069 42.042665,24.580794 C 42.051182,24.572516 42.057157,24.560002 42.057156,24.546940 C 42.057156,24.546940 43.183241,23.474698 44.109140,22.592650 z" style="opacity:1;fill:url(#linearGradient1483);fill-opacity:1;fill-rule:evenodd;stroke:none;stroke-width:1;stroke-linecap:butt;stroke-linejoin:round;stroke-miterlimit:4;stroke-dasharray:none;stroke-opacity:1"/><g id="g3586" transform="matrix(1.014890,0.000000,0.000000,1.014890,-0.204735,-0.324784)"><path style="fill:url(#radialGradient1485);fill-opacity:1;fill-rule:evenodd;stroke:none;stroke-width:.31200001;stroke-linecap:butt;stroke-linejoin:round;stroke-miterlimit:4;stroke-opacity:1" id="path2380" d="M 13.750000,12.375000 C 8.7638665,12.375000 4.7187502,16.602894 4.7187500,21.812500 C 4.7187500,27.022106 8.7638668,31.250000 13.750000,31.250000 C 18.736133,31.250000 22.781250,27.022106 22.781250,21.812500 C 22.781250,16.602894 18.736133,12.375000 13.750000,12.375000 z M 9.9062500,18.000000 L 10.312500,18.000000 C 11.382373,18.000000 12.250000,18.903567 12.250000,20.000000 L 12.250000,23.218750 C 12.250000,24.315183 11.382373,25.187500 10.312500,25.187500 L 9.9062500,25.187500 C 8.8363774,25.187500 7.9687500,24.315183 7.9687500,23.218750 L 7.9687500,20.000000 C 7.9687500,18.903567 8.8363772,18.000000 9.9062500,18.000000 z"/><path style="opacity:.45405403;fill:#c4a00f;fill-opacity:1;fill-rule:evenodd;stroke:none;stroke-width:.31200001;stroke-linecap:butt;stroke-linejoin:round;stroke-miterlimit:4;stroke-opacity:1" id="path2440" d="M 21.593750,17.156250 C 17.079155,17.492669 15.849116,19.744922 12.250000,22.187500 L 12.250000,23.218750 C 12.250000,24.315183 11.382373,25.187500 10.312500,25.187500 L 9.9062500,25.187500 C 9.2380920,25.187500 8.7214707,24.806852 8.3750000,24.281250 C 7.2850437,24.683838 6.2681979,24.885104 5.2500000,25.031250 C 6.5096603,28.658990 9.8445697,31.249999 13.750000,31.250000 C 18.736151,31.250001 22.781249,27.022118 22.781250,21.812500 C 22.781250,20.117611 22.343403,18.531564 21.593750,17.156250 z"/></g><path id="rect2420" d="M 9.8951075,18.013262 L 10.308493,18.013262 C 11.378366,18.013262 12.239672,18.895949 12.239672,19.992382 L 12.239672,23.211815 C 12.239672,24.308248 11.378366,25.190936 10.308493,25.190936 L 9.8951075,25.190936 C 8.8252347,25.190936 7.9639292,24.308248 7.9639292,23.211815 L 7.9639292,19.992382 C 7.9639292,18.895949 8.8252347,18.013262 9.8951075,18.013262 z" style="fill:none;fill-opacity:.94117647;fill-rule:evenodd;stroke:#ac8b0b;stroke-width:1;stroke-linecap:butt;stroke-linejoin:round;stroke-miterlimit:4;stroke-dasharray:none;stroke-opacity:1"/><path style="opacity:1;fill:none;fill-opacity:1;fill-rule:evenodd;stroke:#ac8b0b;stroke-width:1;stroke-linecap:butt;stroke-linejoin:miter;stroke-miterlimit:4;stroke-dasharray:none;stroke-opacity:1" id="path3594" d="M 13.781250,11.718750 C 8.4423149,11.718750 4.1250009,16.252117 4.1250000,21.843750 C 4.1250002,27.435382 8.4423153,31.968749 13.781250,31.968750 C 17.786423,31.968750 21.219167,29.417978 22.687500,25.781250 L 24.375000,25.781250 L 26.906250,23.875000 L 27.968750,25.781250 L 33.968750,25.375000 L 35.437500,22.406250 L 37.031250,25.375000 L 38.312500,25.375000 L 39.281250,22.593750 L 40.875000,24.781250 L 42.000000,24.781250 C 42.012300,24.781250 42.022731,24.789526 42.031250,24.781250 C 42.039768,24.772973 42.062501,24.763062 42.062500,24.750000 C 42.062500,24.750000 45.187500,21.750000 45.187500,21.750000 C 45.187501,21.750000 43.937500,18.187500 43.937500,18.187500 L 22.625000,17.750000 C 21.124817,14.190065 17.733327,11.718751 13.781250,11.718750 z M 9.9062500,18.000000 L 10.312500,18.000000 C 11.382373,18.000000 12.250000,18.903567 12.250000,20.000000 L 12.250000,23.218750 C 12.250000,24.315183 11.382373,25.187500 10.312500,25.187500 L 9.9062500,25.187500 C 8.8363774,25.187500 7.9687500,24.315183 7.9687500,23.218750 L 7.9687500,20.000000 C 7.9687500,18.903567 8.8363772,18.000000 9.9062500,18.000000 z"/></g><g id="g1510" transform="translate(-28.01655,6.332979)"><rect id="rect1316" width="31.057" height="26.917" x="42.231" y="10.262" rx="3.349" ry="3.349" style="opacity:1;fill:url(#linearGradient1534);fill-opacity:1;fill-rule:evenodd;stroke:url(#linearGradient1536);stroke-width:.6902076;stroke-linecap:round;stroke-linejoin:round;stroke-miterlimit:4;stroke-dasharray:none;stroke-dashoffset:0;stroke-opacity:1"/><rect id="rect1314" width="25.598" height="20.031" x="44.987" y="13.01" rx="1.136" ry="1.136" style="opacity:1;fill:url(#linearGradient1538);fill-opacity:1;fill-rule:evenodd;stroke:url(#linearGradient1540);stroke-width:.68672782;stroke-linecap:round;stroke-linejoin:round;stroke-miterlimit:4;stroke-dasharray:none;stroke-dashoffset:0;stroke-opacity:1"/><g style="opacity:.25568178" id="g2286" transform="matrix(0.690208,0.000000,0.000000,0.690208,41.19356,7.845092)"><path style="fill:none;fill-opacity:.75;fill-rule:evenodd;stroke:#181f10;stroke-width:1.0007213;stroke-linecap:butt;stroke-linejoin:miter;stroke-miterlimit:4;stroke-dasharray:none;stroke-opacity:1" id="path1345" d="M 8.0152033,11.500361 L 39.994145,11.500361"/><path id="path2264" d="M 8.0152033,13.500361 L 39.994145,13.500361" style="fill:none;fill-opacity:.75;fill-rule:evenodd;stroke:#181f10;stroke-width:1.0007213;stroke-linecap:butt;stroke-linejoin:miter;stroke-miterlimit:4;stroke-dasharray:none;stroke-opacity:1"/><path style="fill:none;fill-opacity:.75;fill-rule:evenodd;stroke:#181f10;stroke-width:1.0007213;stroke-linecap:butt;stroke-linejoin:miter;stroke-miterlimit:4;stroke-dasharray:none;stroke-opacity:1" id="path2266" d="M 8.0152033,15.500361 L 39.994145,15.500361"/><path id="path2268" d="M 8.0152033,17.500361 L 39.994145,17.500361" style="fill:none;fill-opacity:.75;fill-rule:evenodd;stroke:#181f10;stroke-width:1.0007213;stroke-linecap:butt;stroke-linejoin:miter;stroke-miterlimit:4;stroke-dasharray:none;stroke-opacity:1"/><path style="fill:none;fill-opacity:.75;fill-rule:evenodd;stroke:#181f10;stroke-width:1.0007213;stroke-linecap:butt;stroke-linejoin:miter;stroke-miterlimit:4;stroke-dasharray:none;stroke-opacity:1" id="path2270" d="M 8.0152033,19.500361 L 39.994145,19.500361"/><path id="path2272" d="M 8.0152033,21.500361 L 39.994145,21.500361" style="fill:none;fill-opacity:.75;fill-rule:evenodd;stroke:#181f10;stroke-width:1.0007213;stroke-linecap:butt;stroke-linejoin:miter;stroke-miterlimit:4;stroke-dasharray:none;stroke-opacity:1"/><path style="fill:none;fill-opacity:.75;fill-rule:evenodd;stroke:#181f10;stroke-width:1.0007213;stroke-linecap:butt;stroke-linejoin:miter;stroke-miterlimit:4;stroke-dasharray:none;stroke-opacity:1" id="path2274" d="M 8.0152033,23.500361 L 39.994145,23.500361"/><path id="path2276" d="M 8.0152033,25.500361 L 39.994145,25.500361" style="fill:none;fill-opacity:.75;fill-rule:evenodd;stroke:#181f10;stroke-width:1.0007213;stroke-linecap:butt;stroke-linejoin:miter;stroke-miterlimit:4;stroke-dasharray:none;stroke-opacity:1"/><path style="fill:none;fill-opacity:.75;fill-rule:evenodd;stroke:#181f10;stroke-width:1.0007213;stroke-linecap:butt;stroke-linejoin:miter;stroke-miterlimit:4;stroke-dasharray:none;stroke-opacity:1" id="path2278" d="M 8.0152033,27.500361 L 39.994145,27.500361"/><path id="path2280" d="M 8.0152033,29.500361 L 39.994145,29.500361" style="fill:none;fill-opacity:.75;fill-rule:evenodd;stroke:#181f10;stroke-width:1.0007213;stroke-linecap:butt;stroke-linejoin:miter;stroke-miterlimit:4;stroke-dasharray:none;stroke-opacity:1"/><path style="fill:none;fill-opacity:.75;fill-rule:evenodd;stroke:#181f10;stroke-width:1.0007213;stroke-linecap:butt;stroke-linejoin:miter;stroke-miterlimit:4;stroke-dasharray:none;stroke-opacity:1" id="path2282" d="M 8.0152033,31.500361 L 39.994145,31.500361"/><path id="path2284" d="M 8.0152033,33.500361 L 39.994145,33.500361" style="fill:none;fill-opacity:.75;fill-rule:evenodd;stroke:#181f10;stroke-width:1.0007213;stroke-linecap:butt;stroke-linejoin:miter;stroke-miterlimit:4;stroke-dasharray:none;stroke-opacity:1"/></g><rect id="rect2232" width="29.641" height="25.538" x="42.957" y="10.952" rx="2.617" ry="2.617" style="opacity:.76373625;fill:none;fill-opacity:1;fill-rule:evenodd;stroke:url(#linearGradient1542);stroke-width:.6902076;stroke-linecap:round;stroke-linejoin:round;stroke-miterlimit:4;stroke-dasharray:none;stroke-dashoffset:0;stroke-opacity:1"/><path id="text1340" d="M 49.217228,22.118174 L 49.217228,20.010008 L 55.418628,22.812801 L 55.418628,24.093771 L 49.217228,26.914950 L 49.217228,24.813047 L 54.024110,23.533500 L 49.217228,22.118174 z M 62.257076,29.038448 L 62.257076,30.401054 L 54.731458,30.401054 L 54.731458,29.038448 L 62.257076,29.038448" style="font-size:18.585011px;font-style:normal;font-variant:normal;font-weight:700;font-stretch:normal;text-align:start;line-height:125%;writing-mode:lr-tb;text-anchor:start;fill:#fff;fill-opacity:1;stroke:#6ed66e;stroke-width:.69020801pt;stroke-linecap:butt;stroke-linejoin:miter;stroke-opacity:.27868852;font-family:Bitstream Vera Sans Mono"/><path id="path2443" d="M 46.456664,13.366756 C 46.095488,13.366756 45.370374,13.498025 45.370374,14.074893 L 45.451853,25.474743 C 57.649200,24.809806 55.200940,19.776322 70.182296,17.254917 L 70.138995,14.258076 C 70.084978,13.481528 69.766754,13.407792 69.027657,13.412359 L 46.456664,13.366756 z" style="opacity:.53142858;fill:url(#linearGradient1544);fill-opacity:1;fill-rule:evenodd;stroke:none;stroke-width:.25pt;stroke-linecap:butt;stroke-linejoin:miter;stroke-opacity:1"/><rect id="rect1340" width="23.485" height="17.985" x="46.018" y="14.044" rx=".081" ry=".081" style="opacity:.71428573;fill:none;fill-opacity:1;fill-rule:evenodd;stroke:#000;stroke-width:1.3804154;stroke-linecap:round;stroke-linejoin:round;stroke-miterlimit:4;stroke-dasharray:none;stroke-dashoffset:0;stroke-opacity:1"/><rect id="rect5025" width="2.775" height="2.042" x="65.686" y="33.738" rx=".247" ry=".387" style="opacity:1;fill:url(#radialGradient1546);fill-opacity:1;fill-rule:evenodd;stroke:url(#linearGradient1548);stroke-width:.69020885;stroke-linecap:round;stroke-linejoin:miter;stroke-miterlimit:4;stroke-dasharray:none;stroke-dashoffset:0;stroke-opacity:1"/><rect id="rect6458" width="1.38" height="1.38" x="63.28" y="34.073" rx=".387" ry=".387" style="opacity:1;fill:#93d94c;fill-opacity:1;fill-rule:evenodd;stroke:none;stroke-width:2;stroke-linecap:round;stroke-linejoin:miter;stroke-miterlimit:4;stroke-dasharray:none;stroke-dashoffset:0;stroke-opacity:1"/><path id="path2300" d="M 28.875000 38.750000 A 0.56250000 0.56250000 0 1 1 27.750000,38.750000 A 0.56250000 0.56250000 0 1 1 28.875000 38.750000 z" transform="matrix(0.690208,0.000000,0.000000,0.690208,44.21322,7.801954)" style="opacity:1;color:#000;fill:#fff;fill-opacity:1;fill-rule:nonzero;stroke:none;stroke-width:1;stroke-linecap:butt;stroke-linejoin:round;marker:none;marker-start:none;marker-mid:none;marker-end:none;stroke-miterlimit:4;stroke-dasharray:none;stroke-dashoffset:0;stroke-opacity:1;visibility:visible;display:inline;overflow:visible"/></g></g></svg>