<svg xmlns="http://www.w3.org/2000/svg" xmlns:cc="http://web.resource.org/cc/" xmlns:svg="http://www.w3.org/2000/svg" xmlns:xlink="http://www.w3.org/1999/xlink" id="svg5105" width="48" height="48" viewBox="0 0 48 48" xml:space="preserve"><metadata id="metadata5189"/><defs id="defs5187"><linearGradient id="linearGradient6684"><stop id="stop6686" offset="0" style="stop-color:#d5dbff;stop-opacity:1"/><stop id="stop6688" offset="1" style="stop-color:#6579ff;stop-opacity:0"/></linearGradient><linearGradient id="linearGradient6665"><stop style="stop-color:#000;stop-opacity:1" id="stop6667" offset="0"/><stop style="stop-color:#000;stop-opacity:0" id="stop6669" offset="1"/></linearGradient><linearGradient id="linearGradient6625"><stop id="stop6627" offset="0" style="stop-color:#1d2349;stop-opacity:1"/><stop style="stop-color:#4c5279;stop-opacity:1" id="stop6637" offset=".353"/><stop style="stop-color:#b3bdff;stop-opacity:1" id="stop6633" offset=".466"/><stop id="stop6635" offset=".65" style="stop-color:#727cbe;stop-opacity:1"/><stop id="stop6629" offset="1" style="stop-color:#323c7e;stop-opacity:1"/></linearGradient><linearGradient id="linearGradient6617"><stop id="stop6619" offset="0" style="stop-color:#fff;stop-opacity:.24742268"/><stop id="stop6621" offset="1" style="stop-color:#fff;stop-opacity:0"/></linearGradient><linearGradient id="linearGradient6604"><stop id="stop6606" offset="0" style="stop-color:#ffa196;stop-opacity:1"/><stop id="stop6608" offset="1" style="stop-color:#ff1f06;stop-opacity:0"/></linearGradient><radialGradient id="radialGradient5199" cx="28.789" cy="20.971" r="13.281" fx="28.789" fy="20.971" gradientUnits="userSpaceOnUse" xlink:href="#aigrd1"/><radialGradient id="radialGradient5201" cx="19.292" cy="13.544" r="14.694" fx="19.292" fy="13.544" gradientUnits="userSpaceOnUse" xlink:href="#aigrd2"/><linearGradient id="linearGradient5203" x1="18.229" x2="23.412" y1="11.599" y2="16.723" gradientUnits="userSpaceOnUse" xlink:href="#aigrd3"/><radialGradient id="aigrd1" cx="28.789" cy="20.971" r="13.281" fx="28.789" fy="20.971" gradientUnits="userSpaceOnUse"><stop id="stop5115" offset="0" style="stop-color:#e41e08"/><stop id="stop5117" offset="1" style="stop-color:#901505"/></radialGradient><radialGradient id="aigrd2" cx="19.292" cy="13.544" r="14.694" fx="19.292" fy="13.544" gradientUnits="userSpaceOnUse"><stop id="stop5122" offset="0" style="stop-color:#e41e08"/><stop id="stop5124" offset="1" style="stop-color:#901505"/></radialGradient><linearGradient id="aigrd3" x1="18.229" x2="23.412" y1="11.599" y2="16.723" gradientUnits="userSpaceOnUse"><stop id="stop5137" offset="0" style="stop-color:#fff"/><stop id="stop5139" offset="1" style="stop-color:#901505"/></linearGradient><linearGradient id="linearGradient5274" x1="18.229" x2="23.412" y1="11.599" y2="16.723" gradientTransform="matrix(1.135551,0.000000,0.000000,1.135551,-3.259995,-3.266773)" gradientUnits="userSpaceOnUse" xlink:href="#aigrd3"/><radialGradient id="radialGradient5281" cx="19.292" cy="13.544" r="14.694" fx="19.292" fy="13.544" gradientTransform="matrix(1.135551,0.000000,0.000000,1.135551,-4.540325,-2.077433)" gradientUnits="userSpaceOnUse" xlink:href="#aigrd2"/><radialGradient id="radialGradient5284" cx="28.789" cy="20.971" r="13.281" fx="28.789" fy="20.971" gradientTransform="matrix(1.568763,0.000000,0.000000,1.568763,-15.35801,-3.550752)" gradientUnits="userSpaceOnUse" xlink:href="#aigrd1"/><linearGradient id="linearGradient6610" x1="15.339" x2="43.141" y1="5.924" y2="49.895" gradientTransform="matrix(1.168118,0.000000,0.000000,1.114610,-5.169231,4.056546)" gradientUnits="userSpaceOnUse" xlink:href="#linearGradient6604"/><linearGradient id="linearGradient6623" x1="18.57" x2="29.957" y1="9.444" y2="22.783" gradientTransform="matrix(1.231499,0.000000,0.000000,1.163810,-6.543982,3.111912)" gradientUnits="userSpaceOnUse" xlink:href="#linearGradient6617"/><radialGradient id="radialGradient6663" cx="24.452" cy="19.819" r="33.156" fx="24.452" fy="19.819" gradientTransform="matrix(1.226481,0.000000,0.000000,1.168572,-3.886647,1.053165)" gradientUnits="userSpaceOnUse" xlink:href="#linearGradient6665"/><radialGradient id="radialGradient6678" cx="26.887" cy="20.479" r="14.694" fx="26.887" fy="20.479" gradientTransform="matrix(1.359454,0.000000,0.000000,1.359454,-10.44677,-0.798990)" gradientUnits="userSpaceOnUse" xlink:href="#aigrd2"/><linearGradient id="linearGradient2274" x1="12.487" x2="31.081" y1="3.732" y2="36.033" gradientTransform="matrix(1.225070,0.000000,0.000000,1.216394,-49.39351,2.631247)" gradientUnits="userSpaceOnUse" xlink:href="#aigrd1"/><linearGradient id="linearGradient2271" x1="28.107" x2="22.169" y1="34.869" y2="9.866" gradientTransform="matrix(1.004226,0.000000,0.000000,0.999900,-47.13645,3.672006)" gradientUnits="userSpaceOnUse" xlink:href="#linearGradient3563"/><radialGradient id="radialGradient2269" cx="26.728" cy="38.349" r="17.926" fx="26.728" fy="38.349" gradientTransform="matrix(1.856313,-1.546947e-23,1.233115e-24,1.288949,-68.52577,-10.89218)" gradientUnits="userSpaceOnUse" xlink:href="#linearGradient3555"/><linearGradient id="linearGradient3563"><stop style="stop-color:#fff;stop-opacity:1" id="stop3565" offset="0"/><stop style="stop-color:#939393;stop-opacity:1" id="stop3567" offset="1"/></linearGradient><linearGradient id="linearGradient3555"><stop style="stop-color:#f2f2f2;stop-opacity:1" id="stop3557" offset="0"/><stop style="stop-color:#d0d0d0;stop-opacity:1" id="stop3559" offset="1"/></linearGradient><linearGradient style="stroke-dasharray:none;stroke-miterlimit:4;stroke-width:1.2166667" id="linearGradient2245" x1="12.487" x2="31.081" y1="3.732" y2="36.033" gradientUnits="userSpaceOnUse"><stop id="stop16177" offset="0" style="stop-color:#d2d2d2;stroke-dasharray:none;stroke-miterlimit:4;stroke-width:1.2166667"/><stop id="stop16179" offset="1" style="stop-color:#ededed;stroke-dasharray:none;stroke-miterlimit:4;stroke-width:1.2166667"/></linearGradient><linearGradient id="linearGradient16280" x1="12.487" x2="31.081" y1="3.732" y2="36.033" gradientTransform="matrix(1.211383,0.000000,0.000000,1.211383,-2.021433,0.189894)" gradientUnits="userSpaceOnUse" xlink:href="#aigrd1"/><linearGradient id="linearGradient12129"><stop style="stop-color:#000;stop-opacity:1" id="stop12131" offset="0"/><stop style="stop-color:#000;stop-opacity:0" id="stop12133" offset="1"/></linearGradient><radialGradient id="radialGradient12135" cx="24.218" cy="41.636" r="22.097" fx="24.218" fy="41.636" gradientTransform="matrix(1.000000,0.000000,0.000000,0.184000,3.813612e-14,33.97501)" gradientUnits="userSpaceOnUse" xlink:href="#linearGradient12129"/><radialGradient id="radialGradient3561" cx="26.728" cy="38.349" r="17.926" fx="26.728" fy="38.349" gradientTransform="matrix(1.848501,-1.547102e-23,1.227926e-24,1.289078,-21.29931,-13.68176)" gradientUnits="userSpaceOnUse" xlink:href="#linearGradient3555"/><linearGradient id="linearGradient3569" x1="28.107" x2="22.169" y1="34.869" y2="9.866" gradientTransform="translate(4.257198e-14,0.883885)" gradientUnits="userSpaceOnUse" xlink:href="#linearGradient3563"/><radialGradient id="radialGradient1495" cx="19.292" cy="13.544" r="14.694" fx="19.292" fy="13.544" gradientTransform="matrix(1.135551,0.000000,0.000000,1.135551,-4.540325,-2.077433)" gradientUnits="userSpaceOnUse" xlink:href="#aigrd2"/><linearGradient id="linearGradient1493" x1="18.229" x2="23.412" y1="11.599" y2="16.723" gradientTransform="matrix(1.135551,0.000000,0.000000,1.135551,-3.259995,-3.266773)" gradientUnits="userSpaceOnUse" xlink:href="#aigrd3"/><linearGradient id="linearGradient1487" x1="18.229" x2="23.412" y1="11.599" y2="16.723" gradientUnits="userSpaceOnUse"><stop style="stop-color:#fff" id="stop1489" offset="0"/><stop style="stop-color:#901505" id="stop1491" offset="1"/></linearGradient><radialGradient id="radialGradient1481" cx="19.292" cy="13.544" r="14.694" fx="19.292" fy="13.544" gradientUnits="userSpaceOnUse"><stop style="stop-color:#e41e08" id="stop1483" offset="0"/><stop style="stop-color:#901505" id="stop1485" offset="1"/></radialGradient><radialGradient id="radialGradient1475" cx="28.789" cy="20.971" r="13.281" fx="28.789" fy="20.971" gradientUnits="userSpaceOnUse"><stop style="stop-color:#e41e08" id="stop1477" offset="0"/><stop style="stop-color:#901505" id="stop1479" offset="1"/></radialGradient><linearGradient id="linearGradient1473" x1="18.229" x2="23.412" y1="11.599" y2="16.723" gradientUnits="userSpaceOnUse" xlink:href="#aigrd3"/><radialGradient id="radialGradient1471" cx="19.292" cy="13.544" r="14.694" fx="19.292" fy="13.544" gradientUnits="userSpaceOnUse" xlink:href="#aigrd2"/><radialGradient id="radialGradient1469" cx="28.789" cy="20.971" r="13.281" fx="28.789" fy="20.971" gradientUnits="userSpaceOnUse" xlink:href="#aigrd1"/><linearGradient id="linearGradient1463"><stop style="stop-color:#ffa196;stop-opacity:1" id="stop1465" offset="0"/><stop style="stop-color:#ff1f06;stop-opacity:0" id="stop1467" offset="1"/></linearGradient><linearGradient id="linearGradient1457"><stop style="stop-color:#fff;stop-opacity:.24742268" id="stop1459" offset="0"/><stop style="stop-color:#fff;stop-opacity:0" id="stop1461" offset="1"/></linearGradient><linearGradient id="linearGradient1445"><stop style="stop-color:#1d2349;stop-opacity:1" id="stop1447" offset="0"/><stop id="stop1449" offset=".353" style="stop-color:#4c5279;stop-opacity:1"/><stop id="stop1451" offset=".466" style="stop-color:#b3bdff;stop-opacity:1"/><stop style="stop-color:#727cbe;stop-opacity:1" id="stop1453" offset=".65"/><stop style="stop-color:#323c7e;stop-opacity:1" id="stop1455" offset="1"/></linearGradient><linearGradient id="linearGradient1439"><stop id="stop1441" offset="0" style="stop-color:#000;stop-opacity:1"/><stop id="stop1443" offset="1" style="stop-color:#000;stop-opacity:0"/></linearGradient><linearGradient id="linearGradient1433"><stop style="stop-color:#d5dbff;stop-opacity:1" id="stop1435" offset="0"/><stop style="stop-color:#6579ff;stop-opacity:0" id="stop1437" offset="1"/></linearGradient></defs><path style="opacity:.4804469;fill:url(#radialGradient6663);fill-opacity:1;fill-rule:nonzero;stroke:none;stroke-linecap:round;stroke-linejoin:round;stroke-miterlimit:4;stroke-opacity:1" id="path6639" d="M 39.183941,12.935115 C 40.766042,16.595332 43.545412,16.409102 43.614149,21.294414 C 43.653351,24.018902 45.807922,25.449505 45.807922,28.232668 C 45.807922,31.015831 41.001242,32.391026 39.364087,34.028178 C 37.726931,35.665336 39.493244,39.863726 35.051823,41.097454 C 30.652606,42.319459 28.503201,40.606310 25.720037,40.606310 C 22.936871,40.606310 16.276930,45.972877 13.821195,43.517142 C 11.365462,41.061409 11.313068,35.694843 9.1847681,33.566541 C 6.8927493,31.274523 3.2713943,28.072222 3.2713943,23.979333 C 3.2713943,19.886446 5.6348657,17.725781 9.0210530,13.920678 C 12.514741,9.9947727 12.622793,4.0977437 16.715682,4.0977437 C 20.808570,4.0977437 22.377345,5.2204672 25.860867,5.1324294 C 31.413773,4.9920926 32.094251,2.3510040 36.178216,4.4219055 C 39.778965,6.2477778 37.945436,10.069815 39.183941,12.935115 z"/><path id="path5119" d="M 36.812724,12.758120 C 38.328733,16.265432 40.991995,16.086982 41.057861,20.768211 C 41.095425,23.378883 43.159988,24.749723 43.159988,27.416619 C 43.159988,30.083516 38.554108,31.401262 36.985345,32.970023 C 35.416581,34.538788 37.109106,38.561791 32.853225,39.743979 C 28.637785,40.914936 26.578171,39.273353 23.911274,39.273353 C 21.244375,39.273353 14.862652,44.415731 12.509506,42.062585 C 10.156361,39.709441 10.106156,34.567062 8.0667649,32.527670 C 5.8704950,30.331401 2.4004214,27.262876 2.4004214,23.340968 C 2.4004214,19.419060 4.6651589,17.348657 7.9098893,13.702512 C 11.257628,9.9406123 11.361167,4.2899315 15.283075,4.2899315 C 19.204983,4.2899315 20.708223,5.3657533 24.046221,5.2813932 C 29.367155,5.1469190 30.019206,2.6161618 33.932563,4.6005514 C 37.382891,6.3501479 35.625957,10.012520 36.812724,12.758120 z" style="fill:url(#radialGradient5284);fill-rule:nonzero;stroke:#4c0901;stroke-linecap:round;stroke-linejoin:round;stroke-miterlimit:4;stroke-opacity:1"/><path id="path5126" d="M 36.862245,22.719571 C 36.862245,30.196571 30.744700,36.314115 23.267701,36.314115 C 15.790701,36.314115 9.6731572,30.196571 9.6731572,22.719571 C 9.6731572,15.242572 15.790701,9.1250265 23.267701,9.1250265 C 30.744700,9.1250265 36.862245,15.242572 36.862245,22.719571 z" style="fill:url(#radialGradient6678);fill-rule:nonzero;stroke:none;stroke-miterlimit:4"/><path style="fill:none;fill-rule:nonzero;stroke:url(#linearGradient6610);stroke-linecap:round;stroke-linejoin:round;stroke-miterlimit:4;stroke-opacity:1" id="path6600" d="M 35.559863,13.695887 C 36.940519,16.890056 39.365998,16.727539 39.425983,20.990815 C 39.460193,23.368400 41.340426,24.616847 41.340426,27.045636 C 41.340426,29.474425 37.145771,30.674518 35.717072,32.103216 C 34.288371,33.531919 35.829784,37.195736 31.953879,38.272376 C 28.114804,39.338785 26.239079,37.843769 23.810289,37.843769 C 21.381498,37.843769 15.569552,42.527022 13.426501,40.383970 C 11.283452,38.240921 11.237729,33.557668 9.3804202,31.700358 C 7.3802395,29.700178 4.2199832,26.905619 4.2199832,23.333870 C 4.2199832,19.762120 6.2825193,17.876568 9.2375503,14.555961 C 12.286395,11.129934 12.380690,5.9837607 15.952439,5.9837607 C 19.524189,5.9837607 20.893216,6.9635303 23.933188,6.8867020 C 28.779054,6.7642340 29.372889,4.4594295 32.936850,6.2666475 C 36.079124,7.8600354 34.479054,11.195421 35.559863,13.695887 z"/><path id="path6612" d="M 23.317874,10.131098 C 16.293066,10.131098 10.572425,15.808385 10.572425,22.833196 C 10.572425,27.228021 12.947269,30.950802 16.338223,33.237645 C 25.006342,28.572295 23.465975,20.301933 35.022880,17.977784 C 33.108588,13.369732 28.616087,10.131098 23.317874,10.131098 z" style="opacity:1;color:#000;fill:url(#linearGradient6623);fill-opacity:1;fill-rule:nonzero;stroke:none;stroke-width:1;stroke-linecap:round;stroke-linejoin:round;marker:none;marker-start:none;marker-mid:none;marker-end:none;stroke-miterlimit:4;stroke-dashoffset:0;stroke-opacity:1;visibility:visible;display:inline;overflow:visible"/><rect style="opacity:1;fill:#fff;fill-opacity:1;fill-rule:evenodd;stroke:#000;stroke-width:.71557772;stroke-linecap:round;stroke-linejoin:round;stroke-miterlimit:4;stroke-dasharray:none;stroke-opacity:1" id="rect2277" width="13.855" height="13.432" x="15.771" y="16.576" rx=".706" ry=".672"/><g id="g1591" transform="translate(39.98186,-8.692388)" style="fill:#4e9a06;fill-opacity:1;stroke:#2f8100;stroke-opacity:1;stroke-width:2;stroke-miterlimit:4;stroke-dasharray:none"><path id="path2565" d="M -18.774256,35.711569 C -15.884921,33.451751 -9.7221236,27.154965 -7.6683528,24.373446 L -7.0649887,25.175452 C -9.2750207,27.906894 -15.495793,34.167343 -18.074229,36.678362 L -18.774256,35.711569 z" style="opacity:1;color:#000;fill:#4e9a06;fill-opacity:1;fill-rule:nonzero;stroke:#2f8100;stroke-width:2;stroke-linecap:round;stroke-linejoin:round;marker:none;marker-start:none;marker-mid:none;marker-end:none;stroke-miterlimit:4;stroke-dasharray:none;stroke-dashoffset:0;stroke-opacity:1;visibility:visible;display:inline;overflow:visible"/><path id="path2575" d="M -22.026427,30.745212 C -19.879440,34.104667 -20.394289,33.588518 -18.062200,36.293363 L -18.300811,35.103117 C -17.699879,35.513256 -21.513210,32.122684 -20.754070,31.360032 L -22.026427,30.745212 z" style="opacity:1;color:#000;fill:#4e9a06;fill-opacity:1;fill-rule:nonzero;stroke:#2f8100;stroke-width:2;stroke-linecap:round;stroke-linejoin:round;marker:none;marker-start:none;marker-mid:none;marker-end:none;stroke-miterlimit:4;stroke-dasharray:none;stroke-dashoffset:0;stroke-opacity:1;visibility:visible;display:inline;overflow:visible"/></g></svg>